<svg xmlns="http://www.w3.org/2000/svg" width="169" height="180"><path d="M80 2A3340 3340 0 012 30l2 32a645341 645341 0 0010 79l36 20 35 19 5-3 36-19 30-17v-4l1-9 6-44c7-61 6-54 3-55a513 513 0 00-40-14L84 0l-4 2m13 30c-2 5-1 6 4 7l6 1c1 1 2 0 3-2 2-4 2-4-8-6-5-2-5-2-5 0m-25 1l-5 1 3 7 6-2c6-1 6-1 6-5s-2-4-10-1m7 7c-7 2-19 8-24 13a50 50 0 007 77c4 2 4 2 6 1 2-3 1-4-4-8-13-9-21-28-17-44 11-40 64-46 81-9 9 20 2 43-16 55-4 2-4 2-2 5l1 3 3-2c18-10 28-32 24-52-6-27-32-44-59-39m-31 7l-5 6 2 2 3 2 5-4c6-5 6-5 3-8l-3-3-5 5m74-2l-2 2 5 5c5 5 5 5 7 3 4-2 4-3-2-8-5-6-5-6-8-2M30 71c-3 8-3 10 1 11 4 0 3 1 5-5 2-8 2-8-2-10l-3-1-1 5m106-4c-3 1-3 1-2 6l1 5c1 3 2 3 5 3 2 0 3 0 3-2l-4-13-3 1M83 92a5976 5976 0 01-25 56l5 1h5l2-6c3-7 2-7 14-7 12-1 12-1 15 7l2 6h11l-10-21C83 84 85 87 83 92m52 7l-2 7 2 3c4 2 5 1 6-5 3-8 3-9-1-9-4-1-4 0-5 4M31 96c-2 0-3 1-3 2l4 13 6-3-4-12h-3m50 21l-4 9 7 1h8l-7-18-4 8m-39 5l-3 2 5 6 5 5 3-2 2-3-9-10-3 2m79 2c-4 5-4 5-2 7 2 4 2 4 8-1 4-5 5-6 2-8-2-3-3-2-8 2" fill="#d3d3d3" fill-rule="evenodd"/></svg>