<svg xmlns="http://www.w3.org/2000/svg" width="180" height="180"><path d="M88 1A1961 1961 0 019 32l12 105 70 43 36-22 36-21 2-28c8-78 8-76 6-77A2318 2318 0 0088 1M61 35L32 47l7 77 26 16 25 16 26-16 26-16 1-10 7-68c-1 0-56-22-59-22-1-1-14 4-30 11m49 14c-9 2-15 10-15 20 0 13 9 21 23 20 9-1 15-8 16-18l1-4h-20v4c0 3 1 4 5 4l5 1-3 2c-3 3-11 3-14 0-4-4-4-9-1-16 2-5 10-6 15-2l4 3 3-2 4-3c1 0-5-6-8-7-4-2-11-3-15-2M48 69v19h10V76l1-11 9 11c9 12 10 12 14 12h4V49h-9v24L66 61C56 49 56 49 52 49h-4v20m-5 35c0 6 0 7 2 7l1-6v-5l2 4 3 4 4-4 1-4 1 5c0 4 0 6 2 6l1-7c0-8 0-8-2-8s-3 1-5 4l-2 5-1-5c-2-3-3-4-5-4s-2 0-2 8m23 0c-3 6-3 7-1 7l2-1 4-2 4 2 2 1c2 0 2-1-1-7-2-7-3-8-5-8s-3 1-5 8m16 0l1 7c1 0 2-1 2-5l1-5 3 5c2 4 3 5 5 5s2 0 2-7 0-8-2-8-2 1-2 5v6l-3-6c-2-4-3-5-5-5s-2 0-2 8m42 0c-3 6-3 7-1 7l2-1 4-2 4 2 2 1 2-1-3-7c-2-6-3-7-5-7s-3 1-5 8" fill="#d3d3d3" fill-rule="evenodd"/></svg>