<svg xmlns="http://www.w3.org/2000/svg" width="170" height="180"><path d="M44 20L5 34l12 100v4l34 18 33 19 33-18 35-19c1-2 14-104 13-105L84 6 44 20m4 29h-1c-2-2-3-1-2 2l-1 3c-2 0-15 13-17 18-7 14-5 30 4 44l3 6 1-7c1-10 7-13 13-7l4 3 2-3c2-3 3-3 7-3 9 0 14 6 20 21l3 7 3-5c3-8 7-15 10-19 7-6 17-5 19 1 1 1 2 1 4-2 8-6 14-2 14 8 0 4 0 4 2 3 3-3 8-14 9-20 3-17-1-29-15-41-6-5-7-6-6-8 0-2 0-2-1-1h-3l-1-2-1 2c0 2-1 3-3 1h-1l4 4c9 9-2 25-17 25-7 0-7 0 0-5 3-2 2-5-3-7-1-1-2-2-1-4V52l-2-3-2 5-2 6-7-1c-6 0-6 0-8-3l-2-5c0-3-2-1-3 3v8c1 3 1 4-2 6-4 3-4 4 0 7 5 3 5 4 2 4-12 1-22-7-24-17 0-4 0-4 3-7 4-4 5-6 3-5h-2c0-3-2-3-3-1" fill="#d3d3d3" fill-rule="evenodd"/></svg>