<svg xmlns="http://www.w3.org/2000/svg" width="180" height="160"><path d="M80 8L44 20l-17 7v6c0 6-1 7-3 10-4 4-8 12-12 22L5 79c-4 6-6 14-3 15l1 5c3 15 16 27 31 27 4 0 8 2 32 15l31 17 3 2 31-17 31-18 3-18a13835 13835 0 009-58c2 0 2 0 2 8l-2 10c-1 3-1 6 1 6 3-1 5-7 5-16s-2-12-6-12c-2 0-2-2 0-15 0-2 0-3-3-4L99 1 80 8m5 43a6073 6073 0 00-13 33l9-1h6l6-15 6-15 4 7c3 9 3 8 8 5l7-2 1-1-19-42-15 31m-62-1l-4 8-3 6c-2 4-1 5 2 3l7-3 4-1v-7l-1-9c0-3-1-2-5 3m3 17C11 73 3 88 8 104c4 9 13 17 23 19 5 0 5 0 5-2l-6-55-4 1m90 1c-8 2-9 3-6 10l2 6-7 1h-7l-1 5c-1 9-1 9 12 9l10 1 5 11 4 11h4l11-6-23-50-4 2M72 87c-5 2-6 4-6 11-1 7-5 14-10 19l-3 5h8l10-1 4-9c5-14 4-13 12-13h7l-1-4c-1-8-11-12-21-8" fill="#d3d3d3" fill-rule="evenodd"/></svg>