<svg xmlns="http://www.w3.org/2000/svg" width="240" height="240"><path d="M75 1a554 554 0 01-63 22L1 27 0 74a753 753 0 009 118c1 10 1 10 9 14l34 19 26 15h84l19-10a3288 3288 0 0051-28l2-16 5-37a1205 1205 0 000-123l-39-13-37-13h-43L75 1m41 15a3969 3969 0 01-67 144l-6 13c-9 18-9 16 5 17 12 0 16 0 16-2l14-31 5-8 34-1c38 0 39 0 40 4l3 5a2149 2149 0 0114 32h27l-1-4a3048 3048 0 01-47-104l-6-12a9239 9239 0 01-27-59l-4 6m3 45c-2 9-3 12-6 10-3-1-5 1-2 3l2 3h-3c-1-1-2 2-1 7 0 2 0 2-3 1-2-1-2-2-2-4 1-3-2-7-4-6s-4 6-2 8v5l-1 8-1 6c-2 2 1 6 4 5a192 192 0 0137 1l3-1c2 0 3 0 3-3 0-4 0-4-2-4s-2 0-1-1l1-3c1-21 1-20-2-22-2-2-2-2-5 1-2 2-2 2-1 5s0 5-4 3c-3-2-3-2-3-7l-5-22-2 7m-38 62c-2 1-1 12 1 11l1-3c0-2 1-3 2 0l2 1 3-1c2-3 3-2 3 1l1 3 1-3c0-2 0-2 2 0 3 3 5 2 3-1-3-5 2-9 5-5 2 1 2 2 0 4-2 5 0 6 3 2l1-2 2 2 3 2v-3c-2-2-1-7 2-7s6 3 6 6 3 6 3 3c1-3 2-3 5 0 3 4 4 2 1-2s-2-6 2-7c2 0 2 0 2 5 1 5 1 6 4 6 5 0 6-2 6-8v-4l-8-1-9 1c-1 2-1 2-3 0h-5c0-2-8-1-9 1l-2 2-1-2c-3-2-8-3-10 0h-3c-2-3-3-2-4 1l-3 3-4-3c-1-3-2-4-3-2" fill="#d3d3d3" fill-rule="evenodd"/></svg>