<svg xmlns="http://www.w3.org/2000/svg" width="170" height="180"><path d="M46 23L10 37c-1 1 10 98 12 99l61 34a1170 1170 0 0066-35l12-98a635 635 0 00-77-27L46 23m37 26l-1 2-2 3c-2 2-2 2-3 1-2-2-4-3-4 0l1 4c0 3 0 3 1 2h1l-2 2-2 1-17 1-15 1 1 1c2 0-1 5-3 6v2c2 1 2 5 3 21 0 20 0 23-5 23l-2 1a312 312 0 0048-1c-4 0-5-2-5-18 0-17 1-18 5-19l3-1v-8l-1-10v-2l1-7c0-6-1-7-2-5M48 84c-2 3-1 33 0 34 2 2 6 1 7-1V84c0-1-1-2-3-2-3 0-4 1-4 2m15 0v33l4 2c3 0 4-3 4-19 0-17 0-18-4-18-3 0-4 1-4 2" fill="#d3d3d3" fill-rule="evenodd"/></svg>