<svg xmlns="http://www.w3.org/2000/svg" width="283" height="300"><path d="M71 26C23 43 2 51 2 52l8 68 13 113 58 33 58 32 5-2 16-9 12-7 2-9c11-38 23-108 32-180v-6l-5-2c-7-3-10-7-10-13 0-10 3-14 13-16 7-1 6-1 8-18v-9l-36-13-37-12-68 24m164 19v10l5 2c8 4 10 7 10 15-1 8-2 10-10 13l-5 2v28c0 40 3 108 6 123v4l8-5 9-4a10071 10071 0 0022-180c1-3 1-3-21-10l-23-8-1 10M97 132l-43 95h32l8-21 9-21 38-1h39l2 4 2 5 1-6 6-37c0-3-39-87-49-109l-3-4-42 95m30-4l-12 30 27 1 26-1-28-59-13 29m80 54l-13 82v4l4-3c4-2 5-3 5-5a3747 3747 0 004-78" fill="#d3d3d3" fill-rule="evenodd"/></svg>