<svg xmlns="http://www.w3.org/2000/svg" width="279" height="300"><path d="M121 7L51 31 0 49v7a18930 18930 0 0022 179c3 2 112 63 117 64a1213 1213 0 00119-67l3-19a16295 16295 0 0018-165A3709 3709 0 00139 0l-18 7M65 54l-1 2-2 2c-5 0-11 7-12 14l-1 5v8l1 12c0 12 0 13-2 13-2 1-2 2-2 59v59h46v-18c0-21 0-22 6-25s11-1 14 3c2 3 2 5 2 22v18h12v-22c0-24 0-25 6-29 7-4 17-2 20 5 2 3 2 8 2 25v21h11v-18c0-21 1-24 7-26 5-2 11 0 13 4 2 3 2 6 2 22v18h46v-97h-8v4c0 3 0 4-2 4s-2-1-2-4 0-4-2-4-2 1-2 4v4h-8v-4c0-3 0-4-2-4s-2 1-2 4 0 4-2 4-2-1-2-4v-4h-8v16H87v-18c0-17 0-18-2-19-2 0-2-1-2-13l1-13v-7l-1-5c-1-7-5-12-13-14l-2-3c0-2-2-3-3-1m-1 72l-1 8v8h7v-7l-1-9h-5m0 45l-1 10v9h7v-9c0-10-1-12-6-10m146 0l-1 10v9h8v-9c0-7 0-9-2-10h-5" fill="#d3d3d3" fill-rule="evenodd"/></svg>