<svg xmlns="http://www.w3.org/2000/svg" width="166" height="171"><path d="M52 13C3 30 8 28 8 31a2325 2325 0 0012 96l63 34 64-34a6491 6491 0 0011-99L82 2 52 13m-5 18l-6 6h4c5 0 12 3 14 7 2 2 2 5 2 14 0 12-1 16-6 20-2 1-2 1 1 4 4 5 5 8 5 20 0 15-4 20-15 20-6 0-6 1-3 4 7 6 16 6 23 0 2-2 2-2 6 1 7 3 19 4 26 1 7-2 12-7 16-14 1-4 4-8 6-9 3-3 3-3 1-6l-4-7-5-9-4-3 3-3c2-1 5-6 7-11l5-9-2-2c-2 0-5-5-7-9-5-9-10-13-18-16-7-2-16-1-23 2l-5 3-4-3c-4-3-12-4-17-1m32 10c-7 3-7 3-7 17v12l3 2c5 4 17 4 22 1 6-3 8-8 6-12v-7c3-10-12-19-24-13m-2 45l-4 3-1 13v13l4 2c10 7 28 1 27-8a169 169 0 010-14c1-9-15-14-26-9" fill="#d3d3d3" fill-rule="evenodd"/></svg>