<svg xmlns="http://www.w3.org/2000/svg" width="188" height="201"><path d="M48 17L2 34c-1 1 12 121 14 123l39 22 39 22 39-22 39-22c1-1 15-122 14-123L93 1 48 17m-3 34c-7 4-10 9-12 16v11c1 0 2 1 2 4 0 4-3 7-3 3 0-6-2 4-2 12v10l-1 21 1-3 2-10 1 7c0 8 2 6 2-2 0-4 0-5 2-5l1 7 1 7 1-6c0-6 2-10 4-9l1 9c0 6 0 7 2 7l1-6c0-8 1-10 4-10s4 3 3 9c0 6 1 8 3 8l1-7c0-8 1-11 5-11 3 0 4 2 4 10 0 7 0 8 2 8s2-1 2-8c0-8 1-10 5-10s5 2 5 11v8h5l5-1c-4-11-3-18 2-18s6 1 6 11c0 7 1 7 3 7s3 0 3-7c0-8 1-11 4-11 4 0 5 3 5 11 0 6 0 7 2 7s2-1 2-7c0-9 2-12 6-10 2 2 3 3 3 9 0 7 0 8 2 8 1 0 2-2 2-8 0-7 1-9 2-9 4 0 5 2 5 9 0 6 0 7 2 7l1-7c0-5 0-7 2-8s2 1 3 8l1 6v-6l1-7c2-2 3 0 3 6l1 7 1-6 1-7 1 6c0 5 0 6 2 6s2 0 1-6l-2-23-2-17-10-3-20-3c-10-2-55-2-59-1-3 1-3 1-4-3l-2-6-3-3c-2 0-3-2-4-7-3-7-3-8-8-5m32 28c-2 1-2 3-2 6l1 6h8v-6c0-7-3-11-7-6m14-1l-1 7v6h10v-6c0-3 0-5-2-6-1-2-6-3-7-1m17 0c-2 0-3 3-3 9 0 3 1 4 5 4h4v-6c-1-7-2-8-6-7M61 91l-1 7v6h8v-7c0-6-1-7-4-7l-3 1m30 2c-2 1-2 3-2 9v7h11v-7c0-7 0-8-3-9h-6m15 1l-1 8v7h10v-6c0-5 0-7-2-8-1-2-5-2-7-1m13 1v14h8v-6l-1-8h-7" fill="#d3d3d3" fill-rule="evenodd"/></svg>