<svg xmlns="http://www.w3.org/2000/svg" width="184" height="198"><path d="M48 19L3 36a1123 1123 0 0012 102c0 8 1 15 2 15 1 1 70 40 74 41 1 1 8-3 39-20l38-20a6476 6476 0 0012-119l-16-6L92 3 48 19m63 58c-5 3-4 8 2 20 3 5 5 10 4 11-1 2-7 1-9-1-4-3-5-2-5 3 0 3 1 5 3 8 6 5 11 4 14-4l1-4 4 4c15 14 27 7 24-13-4-22-20-33-25-16-2 6-3 6-5-2-2-10-3-11-8-6m-50 5c-2 8-3 9-5 4-1-8-9-11-15-6s-12 23-11 32c2 11 15 12 25 2l3-4 3 5c3 7 7 8 13 3 2-3 3-5 3-8 0-5-1-5-5-3-3 2-9 3-10 1l3-7c7-11 9-20 5-24-5-4-7-3-9 5m-16 9c-3 3-8 14-8 17 0 2 2 0 8-7 4-6 8-10 7-11-1-2-5-1-7 1m83-1l7 10 8 8c1-3-6-17-10-18h-5" fill="#d3d3d3" fill-rule="evenodd"/></svg>