<svg xmlns="http://www.w3.org/2000/svg" width="279" height="300"><path d="M101 14A26181 26181 0 010 49a478 478 0 007 55 20504 20504 0 0012 110l3 19 12 8a8317 8317 0 00106 58l117-66a9730 9730 0 0022-185c-1 1-6-1-93-31L139 0l-38 14m18 61l-20 45 7 1h8l3-7 4-11 1-3h18l17 1 4 10 4 10h7c8 0 8 0 8-2l-40-88-21 44m15-2l-5 14h22l-5-13-6-14-6 13m-55 67c-5 2-7 13-2 18 3 4 13 2 13-3 0-3-2-2-4 0-3 5-8 2-8-5s4-10 8-6c2 2 4 3 4 1 0-4-6-7-11-5m35 1c-5 4-3 7 4 11l4 3c-1 2-6 3-7 1s-4-3-4-1c0 5 10 7 13 3 3-3 2-7-4-9-5-3-7-5-3-7l5 2c3 3 5 1 2-2-2-3-7-4-10-1m19-1c-6 2-7 16-1 19 7 4 13-1 13-9s-5-13-12-10m-73 3l-3 10c-3 6-3 7-1 7l3-2c1-2 2-3 5-3 2 0 3 0 4 3 1 2 4 3 4 1l-3-10c-4-10-7-12-9-6m34 1c-1 9-1 15 1 16 1 0 2-1 2-4 1-5 2-5 6 0l4 4c3 0 3 0-2-6-4-5-4-5 2-11l2-3h-2l-6 4-4 5v-5l-1-4-2 4m55 6c0 8 0 10 2 10l1-6 1-7 4 7 6 6c2 0 2-1 2-10s0-10-2-10-2 1-2 7v6l-4-6c-7-10-8-10-8 3m19-9l3 10c5 12 6 12 11 0 4-11 4-11 1-11l-4 7c-3 8-3 8-6 0-1-6-2-7-3-7l-2 1m43 9v10h7l6-1c0-2-1-2-4-2h-5v-8c0-8 0-9-2-9s-2 1-2 10m16 0v10h7l6-1c0-2-1-2-5-2-5 0-5 0-5-3 1-2 1-3 5-3 6 0 6-3 0-3-4 0-5-1-5-3s0-2 5-2l5-1c0-2-1-2-6-2h-7v10m-93-6c-4 3-2 13 2 13s6-3 6-8c0-6-4-8-8-5" fill="#d3d3d3" fill-rule="evenodd"/></svg>