<svg xmlns="http://www.w3.org/2000/svg" width="168" height="180"><path d="M83 0A1736 1736 0 011 30a2433 2433 0 0012 110 676 676 0 0069 39 2171 2171 0 0073-38 1120 1120 0 0013-112l-43-14L83 0m-1 25a3226 3226 0 01-18 41l18-2-7-1c-5 0-8 0-7-1l8-1c8 0 8 0 8-2-1-2 0-2 7-2h8l-7 1c-5 0-7 0-7 2l7 1 9 1-7 1-7 1c1 1 4 2 9 2h9l-1-3-19-41c-1-1-2 1-3 3M55 85l-3 8-1 3-1 2-1 2-1 2-2 4v2l-1 1c-1 1-13 27-12 28l10 1h8l6-13 5-13h45l5 13 6 13h8c13 0 13 2 2-20a120 120 0 01-6-13l-1-3-1-2-1-2-1-3-2-5-3-4c-3 0-2 3 0 3 1 1 0 1-1 1-3 0-3 0-3-5l1-5 1-2c-2-2-18-1-18 1l2 2 1 3 2 6 2 5H84c-15 0-15 0-14-2V81l1 4 1 4 2-5c3-7 3-7-7-7h-8l-4 8" fill="#d3d3d3" fill-rule="evenodd"/></svg>