<svg xmlns="http://www.w3.org/2000/svg" width="289" height="300"><path d="M119 1l-4 3-3 1-10 4c-5 2-9 3-10 2l-1 1-14 5c-6 2-11 3-16 6l-8 2-8 3a136 136 0 01-30 11l-3 1-11 5c-1 2 0 13 1 22v9l1 6 2 11 2 14a1253 1253 0 0111 98l3 21c1 8 1 9 5 11l5 3 9 6 3 1 5 2 3 2 3 2 8 4 7 4 3 2 5 3 5 2 4 2c3 3 6 5 23 13l7 4 2 1 4 3 4 2 5 2 3 2 3 2c2 2 12 2 14 0l3-2 4-2c1-2 5-3 7-1 1 2 3 0 1-2-1-2 1-3 6-4l1-1c-1-1 14-9 17-9l1-1 6-4 6-3 8-4 9-5 14-7 1-1c0-2 6-5 9-5 1 0 4-1 5-3l4-2 3-1 1-1c-2 0 1-3 3-3 4 0 6-3 7-11a836 836 0 0111-91l2-15 1-12 5-48c2-16 1-16-3-18l-13-5-3-1-4-1-4-1-3-2c-2 0-11-3-13-5l-3-1-4-1a252 252 0 00-37-13l-2-1-3-2c-7-1-14-4-21-7-6-2-7-3-28-3l-26 1m16 47a160746 160746 0 01-79 179l16 1h17l9-22 8-23h75l1 3 9 23 8 19h17l16-1-88-197-9 18m62 21c-3 2-1 4 4 4h4v28c0 2 1 2 3 2h3V88l1-14 4-1c5 0 5 0 5-2s-1-3-12-3l-12 1m30 0l-1 17v17h9c9 0 9 0 9-2s-1-3-6-3h-6V68h-2l-3 1m-95 54l-13 31c0 2 0 2 25 2l25-1-25-59-12 27" fill="#d3d3d3" fill-rule="evenodd"/></svg>