<svg xmlns="http://www.w3.org/2000/svg" width="283" height="300"><path d="M112 24L76 38l32-11c34-12 32-12 38-9l6 1-11-5-29 10m125 24l16 6 15 5v4l-11 82-9 79-4 2-3 3 4-2c3-1 4-2 4-7l20-161-15-6-17-5M14 61a11902 11902 0 0010 81c-10-87-9-81-8-82v-1l-2 2m124 5l-11 20c-17 31-25 44-25 42h-2l1 1a12101 12101 0 00-22 45l-6 10H46l13 1h13l-4 7c-5 9-4 9 12 9 15 0 14 0 20-10l3-6h11l10-1h-10l-10-1 5-10 5-9h9v9l1 10v-19h32v9l1 10v-19h10l5 9 5 10-11 1h-10l11 1c11 0 12 0 13 2l4 8 3 6h14c17-1 17-1 12-10l-4-6h14c12 0 17-1 12-2 0-1-1-1 0 0l-13 1h-13l-5-8a20035 20035 0 01-24-47l1-2-2 1-7-11-7-11 35-1 35-1h-71l-6-12a175 175 0 01-8-15l-4-7c-4-6-6-7-8-4m0 11l-2 6-1 1a75 75 0 00-10 21l-1 1a462 462 0 00-29 51l-15 26 9 1h8l2-4 2-4 5-8c5-10 5-10 12-10h5v-8l1 5v3h22l23 1 9 13 6 12h18l-8-14a150 150 0 00-9-15 93 93 0 00-12-21l-5-10a828 828 0 01-11-18c-2 0-2 0-1-1 2-2 2-2-1-6l-6-10-8-16-3 4m-1 35a333 333 0 00-16 27c-2 3-1 7 1 7h34v7l1-5 1-2c4 0 4-3 1-8l-3-6-2-3c-11-22-13-24-17-17m1 11l-7 10-3 7h12l13-1-7-12-1-2h-1l-1-1c1-1 0-4-1-4l-4 3m-60 63l-4 8 8 1h9l3-5 2-5h-8l-10 1m110 4l3 5h17l-3-5-2-5h-18l3 5" fill="#d3d3d3" fill-rule="evenodd"/></svg>