<svg xmlns="http://www.w3.org/2000/svg" width="243" height="197"><path d="M82 12L44 23c-2 0-1 3 2 28l6 39 2 12 34 14 33 14 33-14 34-14 12-78-6-3-73-19-39 10m68 19c-29 7-32 52-5 61 12 4 25 2 34-5l4-3V58h-26v10h15v6c0 5-1 5-4 7-11 6-25 1-29-9-1-4-1-15 1-19 4-11 17-15 29-9l5 2 4-3 3-4-4-3c-8-5-18-7-27-5M65 63v30h11V73l1-20 16 20c14 19 15 20 19 20h3V32h-11v37L89 51 75 32H65v31m154 85a5859 5859 0 01-17 47h8l2-2c1-3 1-3 9-3s8 0 9 3c1 2 2 2 7 3l5-1-19-48c-2-3-2-3-4 1M9 148c-6 3-9 11-7 17 2 5 5 7 12 10s9 6 5 9c-3 3-7 2-13 0l-4-2v2c-2 7-1 9 4 10 14 5 26-2 25-14-1-6-3-9-11-13s-10-6-8-9c1-2 2-2 8-2 6 1 7 0 7-5s-11-7-18-3m30 23v25h25v-10H49v-10h13v-10H49v-10h15v-9l-13-1H39v25m30-24c0 1 18 47 20 49 1 2 2-1 12-25 10-26 10-25 3-25l-4 1-5 12c-5 13-6 13-6 10l-5-12-4-10-6-1-5 1m48 24v25h5l5-1v-48l-5-1h-5v25m21-24l-1 24v24h22l4 1v-10h-15l-1-20v-20h-4l-5 1m33 23l1 25h12l12 1v-10h-15v-39l-5-1h-5v24" fill="#d3d3d3" fill-rule="evenodd"/></svg>