<svg xmlns="http://www.w3.org/2000/svg" width="275" height="300"><path d="M129 3A2463 2463 0 018 48l-6 2v8a4205 4205 0 0018 176l82 45 36 20 5-3a12462 12462 0 00112-62 2183 2183 0 0012-124l6-57c0-2-1-3-3-4A5828 5828 0 00137 0l-8 3m43 66c-19 7-28 23-28 51 0 26 7 41 24 49 6 3 7 4 22 3 16 0 21-1 30-7 8-5 8-4 8-27v-19l-21-1h-20v16h19v9c0 10-1 11-11 13-11 2-21-2-25-11-7-12-7-37 0-50 7-15 31-14 35 2l2 5h20v-5c-2-11-9-21-20-26-7-3-27-4-35-2M44 121v51h21v-33l1-33 2 3 20 33 18 30h22V69h-11l-10 1-1 32v33l-20-33-20-33H44v52m71 79c-1 0-2 1-2 4s0 3-4 3c-5 0-7 2-7 9 1 7 4 10 8 8h4l2 1 2-13c0-13 0-13-3-12m48 0l-1 13c0 11 1 12 3 12s2 0 2-7c0-5 0-7 2-7 3-2 4 1 4 8 0 6 0 6 2 6s2-1 2-8c0-8-1-10-6-10-4 1-4 1-4-3-1-4-2-6-4-4M53 213c0 12 0 12 2 12s3-1 3-8l1-7 4 8c3 6 5 7 7 7h2v-24h-2c-3 0-3 0-3 7v7l-5-7c-3-6-5-7-7-7s-2 0-2 12m34-5c-5 4-4 13 1 16 5 2 12 0 10-4h-3c-3 1-3 1-5-1l-2-2h11v-3c0-6-7-9-12-6m35 2c-6 8 3 20 11 13 3-2 1-5-2-3h-4c-3-2-2-3 3-3 6 0 7-1 5-6-3-5-10-6-13-1m28 6c0 8 1 9 3 9s2 0 2-6c0-7 0-7 3-8 4-2 3-4-3-4h-5v9m32-6c-5 6-1 15 7 15 2 0 6-2 6-4s-2-2-4-1h-4c-3-2-2-3 3-3 6 0 7-1 5-6-3-5-10-6-13-1m25 6c0 8 1 9 3 9s2 0 2-6c0-7 2-10 5-8l1 8c0 6 0 6 2 6s2-1 2-8c0-9 0-10-9-10h-6v9" fill="#d3d3d3" fill-rule="evenodd"/></svg>