<svg xmlns="http://www.w3.org/2000/svg" width="238" height="254"><path d="M116 2a2090 2090 0 01-72 26l-14 4-17 7-11 4v3l1 16a2083 2083 0 0113 107l2 18 1 11 6 3a1760 1760 0 0094 52l7-4a762 762 0 0159-32l21-12 13-7 1-9a2550 2550 0 0016-137V42l-25-8a25319 25319 0 01-95-32m-5 49l-1 4-1 4c-1 0-2 1-2 3s-1 4-4 6-4 4-4 6l-2 2c-3 0-3 1-5 15 0 7-2 13-4 14l-1 14a87 87 0 01-4 32c0 2-1 2-3 2s-3 1-4 3c0 1-1 2-3 2s-3 1-4 3l-4 2-3 1-3 18c-3 5-5 5 60 5 66 0 63 0 60-6l-2-7c0-8-1-11-4-11s-4-1-4-3-1-2-3-2c-3 0-4 0-4-2-1-2-2-3-4-3s-3 0-3-2l-1-3c-2-1-3-15-3-29l-1-14c-2-1-4-7-4-14-2-14-2-15-5-15l-2-2c0-2-1-4-4-6-2-2-4-4-4-6l-1-3-2-5v-3l-9-1-8 1m2 78c-6 3-6 6-7 21v14h12l13-1c2-4 0-27-2-29-3-6-10-8-16-5" fill="#d3d3d3" fill-rule="evenodd"/></svg>