<svg xmlns="http://www.w3.org/2000/svg" width="180" height="180"><path d="M73 13a17829 17829 0 01-61 23l1 9 3 27 2 20 3-2 2-3c0-4 12-8 13-4l2 1c3 0 4 5 4 11v7h5c6 1 6 1 6-7l1-7c1 0 2-2 2-6l1-4 8-1c11-1 12-1 12 6 0 2 0 4 2 4l1 14v13l2-7c2-13 2-21 0-36-1-13-1-13-4-14l-3-3-2-2c-4-2 0-8 7-9l3-3 2-3c1 0 2-1 2-5s1-5 3-5 3 2 3 7l2 4 2 2 4 3 8 6c0 2-7 8-8 8a150 150 0 00-2 58c1 1 2-2 2-7 0-7 2-9 8-5l3 3V96l1-10 7-1c8 0 11 1 11 5 1 1 1-1 1-5 0-7 0-7 4-11 5-5 6-5 9-1l4 3c2 0 2 1 2 6 0 7 1 9 3 9 3 0 5 2 5 6 0 6 2 3 2-5l2-13 5-45a475 475 0 00-58-21L90 7l-17 6m16 21l-1 5-2 1v2l-4 3-7 3-2 2h2l3 2 2 3c2 1 3 1 4 14 3 17 2 26 0 41-2 10-3 13-4 13-2 0-2-1-2-17l-1-17-2-5c-1-6 0-6-9-5h-8v5l-1 6c-2 1-2 3-2 8v7h-7l-4-1h-4v-7l-1-8c-3-5-9-8-10-4l-2 1-2 2-3 5-3 3 2 20 3 22 33 20 33 18 65-36c3-3 5-38 3-39l-2-4c0-4 0-4-3-4h-3l-1-8-1-7-4-3-3-3-3 4-4 4-1 20-1 20-1-8-1-8-1-8c0-9 0-9-9-9h-6v12l-1 11-4-3c-5-5-6-4-6 3 0 6-1 7-4 7s-4 0-5-19c0-10 0-17 2-28 1-14 2-14 4-15l2-2 2-2 3-1-3-3-6-2-3-3-2-3c-2 0-2-1-2-4l-1-4c-1-1-1 1-1 3" fill="#d3d3d3" fill-rule="evenodd"/></svg>