<svg xmlns="http://www.w3.org/2000/svg" width="126" height="135"><path d="M47 6c-12 4-17 6-20 5-3 0-6 2-5 5 2 4-1 5-4 2l-2-3h2l3-1-2-1c-2 0-3 0-2-2 0-3 0-3-4-3-4-1-5 0-8 3-6 6-5 11 3 18 6 4 6 4 2 13-1 4-1 4-1-3l1-8-3-1c-6 0-8 6-4 12 2 3 3 6 1 7-3 1-2 4 0 4l3-3 1-1s0 5-2 9c-2 9-2 10 0 11l3 2c2 0 4-4 3-5l3-7 5 5c4 6 5 7 8 6s3-6 0-7l-5-8c-1-5-3-9-4-9-2-1-2-2 0-4l1-4 5 3c4 2 4 2 5 10l1 11c1 2 30 18 32 18l17-8 16-9v-8c1-12 2-13 9-17 1 0 2 1 2 3 2 3 2 4 0 5l-2 4c-2 7-5 13-7 13-3 1-3 6 0 7s4 0 9-6l4-5 3 6c-1 2 2 6 4 6l2-2c2-2 2-2 0-11l-2-9 1 2 3 2c3 0 4-2 1-4s-3-4 0-7c4-6 2-13-3-12-4 1-5 3-3 9 1 8 0 8-2 0l-2-6 3-3c11-8 12-13 5-19-3-3-4-4-8-3-4 0-4 0-4 3 1 2 0 2-2 2-1 0-2 0-1 1l2 1c2 0 2 2-1 4-3 1-4 0-3-3s-2-5-5-5c-2 1-8-1-19-5L63 0 47 6M6 13c-5 5-3 8 10 19 10 7 13 8 13 6l-2-2c-2 0-10-6-10-8h2c3 3 2-4-1-8l-5-2-4-2c-1-5-1-5-3-3m111 1c0 3-1 4-4 4-4 1-7 4-8 8 0 3 0 4 2 2h2c0 2-8 8-10 8l-2 2c0 2 3 1 13-7 13-9 15-12 11-18l-3-2-1 3m-54 1L43 60h4c3 0 4 0 5-5l2-5h19l2 5c2 5 3 5 6 5l3-1a1289 1289 0 00-21-44M14 85l-2 12-3 12h3l2-1 3-1 2 1 2 1c2 0 2 0 0-11-2-13-2-13-5-13h-2m11 12c0 12 0 12 2 12 3 0 3 0 2-6v-5l3 5c5 9 6 8 6-6 0-11 0-12-2-12s-2 1-2 6v6l-3-6c-1-4-3-6-4-6-2 0-2 1-2 12m18-10c-2 1-2 4-2 10 0 8 0 9 3 11 5 4 10 1 10-7 0-4 0-4-3-4s-4 0-4 2l2 2 1 2c0 1-1 2-3 2l-1-8c0-7 0-7 2-7 1 0 2 0 2 2 0 3 4 3 4-1 0-5-8-8-11-4m13 7c0 11 1 13 4 15 3 1 7 0 9-3l1-11c0-9 0-10-2-10s-2 1-2 9c0 9-1 12-3 11s-2-3-2-10c0-10 0-10-2-10-3 0-3 0-3 9m17-6l-1 12v9h6c5 0 6 0 6-2s-1-2-3-2h-4V95c0-9 0-10-2-10-1 0-2 1-2 3m15 7l-3 12c0 2 3 3 5 1l2-1 2 1 3 1c2 0 2 0 2-2l-3-12c-1-10-1-10-4-10s-3 0-4 10m13 2c0 11 0 12 2 12s2-1 2-5c0-5 0-5 2-5s3 1 3 5c0 5 0 5 3 5 2 0 3-4 1-10v-3c4-4-2-11-8-11h-5v12m-71 20l4 1h3l-3 6c-5 9-5 10 2 10l5-1c0-2-1-2-4-2h-3l3-7c5-9 5-9-1-9-5 0-6 0-6 2m12 6c0 9 1 11 5 11 5 0 6-3 6-12 0-6-1-7-2-7-2 0-2 1-2 8 0 6-1 8-2 8s-2-2-2-8 0-8-2-8l-1 8m12 2c0 8 0 9 2 9s2-1 2-4c0-6 3-5 4 0 0 3 1 4 2 4l1-6v-7c2-3-2-6-7-6h-4v10m19-8v15c3 4 10 2 10-3 0-3-3-2-3 0l-2 2c-2 0-2-1-2-6 0-6 0-7 2-7l2 2c0 1 1 2 2 1v-3c-1-4-7-4-9-1m12 8c0 7 0 9 2 9l1-4c0-3 0-4 2-4s2 1 2 4 0 4 2 4 2-1 2-8c0-9-1-11-3-11l-1 4c0 3 0 4-2 4s-2-1-2-4l-1-4c-2 0-2 2-2 10" fill="#d3d3d3" fill-rule="evenodd"/></svg>