<svg xmlns="http://www.w3.org/2000/svg" width="284" height="300"><path d="M121 8A26982 26982 0 012 52l22 178c0 3 3 4 58 36l59 32 42-24-1-5-2-12c0-35 45-48 65-18l2 2 7-4 7-4 1-9 20-169 1-5-54-19-71-24-17-6-20 7m20 19L51 219l15 1h14l11-22 10-22h78l10 22 9 22h15l15-1a10951 10951 0 00-87-192m-14 90l-14 30c0 2 2 2 27 2h28l-13-30-14-30-14 28m71 128c-5 5-3 9 5 14 5 2 5 2 5 5v4h-6l-7 1c0 3 10 4 14 1 6-5 3-12-6-16-6-3-5-8 3-8l5-1c1-4-9-4-13 0m20-2l-1 15c0 13 0 14 2 14s2-1 2-5v-6h4c10 0 14-14 4-18h-11" fill="#d3d3d3" fill-rule="evenodd"/></svg>