<svg xmlns="http://www.w3.org/2000/svg" width="280" height="300"><path d="M133 2a2457 2457 0 01-55 20l-8 24 12-3 12-4-3 12-3 12 11-3 12-3-3 11c-4 13-4 13 3 11 5-2 4 1 19-32l10-23V12c0-13 0-13-7-10m49 19l-6 3 3 2 9 5 6 4-9 5c-7 3-9 5-8 5l9 5 8 5-6 3-9 5-3 2 9 5 9 5-4 2a202 202 0 01-13 8l8 5 8 5-9 5-8 5 8 5 9 5h-6l-7 1 6 15c6 12 7 13 9 13s2 0 2 4c-1 4-1 6 2 10 2 7 3 7 10 4l6-2-8 24-10 4-11 3c-1 0-1-1 1-8 0-2 0-2-2-2s-3-1-4-5c-3-6-2-5-9-4l-5 2 3-9c2-9 2-14 0-14l-11 3-9 2 1-5c2-5 3-5-21-5l-20 1-7 17-7 17h-9c-8 0-10 0-14 2l-4 3 4 2 10 6 4 2-5 3-6 4c-1 1 61 36 63 36l60-33c4-2 4-3 6-10l3-10 4-2a483 483 0 0020-6l-1 6c-2 5-2 6 1 4a14214 14214 0 0117-149l-10-4a1763 1763 0 01-50-18l-7 4M40 35l-11 4c-1 1 3 39 6 67l2 10h49l-9 5-8 4 6 4 9 5 3 2-9 5-8 5 6 4 6 3 1-3a1794 1794 0 0018-46c-4 2-4 1 0-11l3-11-12 2c-7 3-11 3-11 3l3-12 3-11-12 3-11 3 3-12 3-12-12 4-12 3 3-11 3-10c0-1-1-1-12 3m82 84c-3 6-3 6 8 6h10v-9l-9-1h-8l-1 4M31 246c-5 0-11 2-14 3l-6 3-5-3-5-2c-2 2 13 29 15 29a85 85 0 0137-6l-2 5-3 5 10 10 10 10 7-5a130 130 0 01135 4c1 1 5-3 11-9l10-10-2-4c-4-6-4-6 4-6 9 0 15 1 25 4l6 2a738 738 0 0017-29c0-1-5 0-10 3l-3 2-6-3c-12-4-29-6-44-4l-8 1-2 8c-2 11-1 10-11 7a186 186 0 00-124 2l-2-8c-2-8-3-8-5-9-6-2-27-2-35 0m1 1c-7 2-15 4-17 6l9 6-2 7-4 6 7-1 19-3h11l5-10c6-9 6-9 4-10-4-2-25-2-32-1m186 0l-5 1 5 10 6 10h11c9 1 19 2 24 5 2 0 2-1-1-6l-4-7 6-4c6-3 6-4-6-7-8-2-28-3-36-2m-99 8c-24 3-53 13-64 23l-3 2 8 8 9 9 8-5c36-22 96-21 130 2l4 3 9-8c10-10 10-9-2-16-24-15-65-22-99-18" fill="#d3d3d3" fill-rule="evenodd"/></svg>