<svg xmlns="http://www.w3.org/2000/svg" width="270" height="300"><path d="M79 19L25 39v5a3975 3975 0 0016 132l1 6 25 14a68826 68826 0 0167 37 1267 1267 0 0094-52l2-21a48434 48434 0 0015-120c0-2-1-3-18-9a21036 21036 0 01-93-31L79 19m21 83l-34 76 13-1h12l7-17 7-16h61l7 15c9 21 7 19 20 19 9 0 11 0 11-2L134 27l-34 75m24-4l-10 24 22 1 21-1-23-47-10 23M21 252l-11 24-9 22h3c3 0 4 0 9-15l8-18 2-3 3 9 4 9h-5c-6 0-7 1-7 4l7 1 7 1 3 6c2 6 2 6 6 6h3l-7-15-14-34-2 3m217 21l-11 24 3 1c3 0 3-1 10-17 6-16 8-19 8-18l7 16-5 1c-4 0-5 1-6 3s-1 2 6 2h8l2 6c2 6 3 7 6 7l3-1-20-46c-1-2-3 2-11 22M50 256l-1 21v21h15c14 0 14 0 14-2s-1-3-12-3H55v-38h-2l-3 1m34 21v21h5v-16l1-16 7 16c9 22 9 22 19 0l7-16v32h6v-42h-7l-7 15-8 17c-1 2-1 1-8-15l-8-18h-7v22m55-21l-1 21v21h15c14 0 14 0 14-2s-1-3-12-3h-11v-14h11c10 0 11-1 11-2 0-2-1-3-11-3h-11v-14h11c11 0 12-1 12-2 0-2-1-3-14-3l-14 1m36 21v21h6v-38h6c9 0 11 1 12 4 1 4-1 7-7 10-7 2-6 3 2 14 6 10 6 10 10 10h4l-3-5-8-10-3-5 4-2c5-2 8-8 8-12-2-7-6-9-20-9h-11v22m40-20l-1 21v20h6v-43h-2c-2 0-3 1-3 2" fill="#d3d3d3" fill-rule="evenodd"/></svg>