<svg xmlns="http://www.w3.org/2000/svg" width="279" height="300"><path d="M71 26L3 51a1809 1809 0 0020 180 19514 19514 0 01116 66l117-63 4-32a194385 194385 0 0117-148c0-3 0-3-5-5L139 2 71 26m-1 28c0 7-4 12-8 11-3 0-3 0-2 4 0 4 0 4-3 5-3 2-7 5-7 7l18 1 17-1-5-7c-2 0-2-1-1-4l-1-3c-1 0-2 0-1-1 1-2-1-6-3-6l-1-2-1-3-1-3c-1-2-1-1-1 2m139-2l-1 4-1 2-2 3c-2 0-2 1-2 3 1 2 0 3-1 3l-1 2c0 2 0 2 1 0 2-1 2-1 2 1l-1 2h-1l-1 2c-2 0-5 4-6 6s0 2 17 2l17-1c0-2-9-10-11-8l-1-1 2-1 1-5-2-1c-5 0-8-4-8-11 0-3-1-4-1-2M104 80c0 4 1 4 36 4s36 0 36-4c0-2-2-2-36-2s-36 0-36 2m-55 4c-2 1-2 3-2 20l-2 17a97 97 0 10189 49c3-12 3-31 0-43l-2-16c0-23 0-26-2-27h-37c-1 0-2 3-2 7v7h-25c-25 0-25 1-22 2 6 3 47 3 47 0l3-3 3-2v3c-1 5-4 6-25 6h-18l5 3c5 3 6 3 19 3h13v6c1 9 3 10 3 1 0-5 0-6 2-6 5-2 5-1 5 7s1 10 4 10v-18h16v12l-1 11-1-9c0-7 0-9-2-10v-2h-5c-4-1-5 1-5 10l1 8 1-3c0-3 0-4 2-4s2 1 2 5l1 5v-6c0-3 0-5 2-5l1 6 1 6-1 2c-1 1-9-2-39-17l-39-18-38 18c-38 17-41 19-37 19l3 1 2 1 2-1 4-1 3 1 2 1 2-1 4-1 3 1 3 1 2-1 4-1 3 1 2 1 2-1 4-1 3 1 2 1 3-1 3-1 4 1 2 1 2-1 4-1 3 1 2 1 2-1 4-1 3 1 3 1 2-1 4-1 3 1 2 1 2-1 4-1 3 1 2 1 3-1 4-1 4 1 2 1 2-1 4-1 3 1 2 1 3-1 3-1 3 1 3 1 2-1 4-1c2 0 3 0 3 2s-1 2-77 2c-75 0-77 0-77-2l-2-3v-2c2-1 2-3 2-7s0-5 2-5 2 1 2 5l1 5v-5c0-6 3-7 3-1 0 2 0 3 1 2l1-9c0-7-1-8-3-8-3-1-9 0-7 1v1c-2 1-2 3-2 10l-1 9-1-11v-12h16v9c0 8 0 9 2 9l2-1v-8c0-8 0-9 2-9 4 0 5 1 5 7 0 9 2 8 3-1v-6h13c12 0 13 0 19-3l7-3h-19c-20 0-25-1-25-6 0-2 0-2 3-1l2 3c0 3 40 3 47 0l5-2H89v-5l-2-7-1-3H68l-19 1m48 5c-2 1-3 3-3 5v3h92v-3l-2-6-3-2H99l-2 3m29 23c-13 6-13 7-10 7l6 2c3 1 3 1 4-2l3-2 2-1 3-2 3-2c2-3 4-4 8-2 2 1 2 1 1 2-2 2-1 7 1 7 2 1 2 1 0 4-3 5-5 6-7 3-3-2-6-3-6-1l-1 2c-2 1 8 5 11 5l4-1 2-12 1-3c1 0 3 3 3 5s1 3 4 3l4 2c2 2 2 2 3 1 2-1 2-2 0-3l-2-4c0-2 4 0 7 4l5 3 9 3c1 1-3 2-6 2s-4 0-3 1l-46 1a972 972 0 01-38-3l5-1c3 0 4-1 5-2 2-3 5-4 8-2h5l4-1-3-1h-4c-1 1-2 0-3-1l-2-1-24 11-6 1-6 1c-1 1 22 1 69 1a883 883 0 0056-3l-56-27-13 6m-76-1c-2 1-2 3-2 16v14h5v-15l-1-16-2 1m176 14v15h5v-14c0-14-1-16-4-16l-1 15M78 156a426 426 0 001 59c2 2 2 1 2-17v-41c-2-4-3-4-3-1m13 1a576 576 0 001 68c5 3 5 3 5-7 0-7 0-10 2-12 1-2 1-2-1-3l-2 1c-1 1-1 1-1-1v-2l1-44c1-3 1-3-2-3-2 0-3 1-3 3m35 1v64c3 2 4 1 4-5s1-11 3-11 1-2-1-2h-2c-1 1-1 1-1-1v-44c0-6-1-7-3-1m22-2v4a494 494 0 010 45c-1-1-2-2-3-1-1 0-1 1 1 2 2 2 2 4 2 9 0 7 1 9 4 7 2-1 2-2 2-31 0-31-1-37-4-37l-2 2m34 0l2 3a338 338 0 01-1 44c0 2-2 4-2 2l-2-1 1 3c2 1 2 4 2 11l1 10 3-2 3-2v-32c0-35 0-38-5-38-2 0-2 0-2 2m16 1c-1 3-2 37 0 52 0 8 0 8 2 6 2-1 2-3 2-29l-1-30c-1-2-2-2-3 1m-148 8c1 8 4 16 7 22l2 4v-30h3l2-1-8-1h-8l2 6m165-5l2 1c2 0 3 1 3 15l1 15 3-8c3-8 6-18 6-22 0-2-1-2-7-2l-8 1m-114 48l-1 11c0 12 0 12 7 12h5v-10c0-9 0-11-2-12-2-2-7-3-9-1m34 1c-2 1-2 2-2 12v10h12v-10c0-11-1-14-6-14l-4 2m34 0c-2 1-2 4-2 12v10h4c8 0 8 0 8-12 0-9 0-10-2-11-3-2-7-1-8 1" fill="#d3d3d3" fill-rule="evenodd"/></svg>