<svg xmlns="http://www.w3.org/2000/svg" width="344" height="300"><path d="M102 27L35 51l8 65 64-6c44-5 66-7 70-6l5 1 2 6 3 14c0 7-1 25-3 26-1 1-7-1-8-3l-1-2v2l-1 2c-2 1 0 3 2 3l5 1 3 1-2 7c-4 11-5 12-5 2v-8l-1 7c0 7 0 8-2 8l-2 1 2 1c2 0 3 1 0 5-1 3-1 6 1 6 2-1 5-5 8-14 4-8 4-8 5-6 2 3 6 5 11 5 4 0 5-2 7-10 2-6 2-7 0-9-2-3-7-5-12-4h-4l1-7a78 78 0 00-4-34l53 5c53 6 58 7 58 5a2887 2887 0 016-64L169 3l-67 24M61 156l-4 9c0 2 3 1 4 0l4-2 4 2 2 1c2 0 2-1-2-9l-4-9-4 8m14 0c0 8 0 10 2 10l1-5v-5l5 5 5 5v-9l-1-10c-2 0-2 1-2 5v6l-5-6-5-5v9m19-6c-5 6-1 16 6 16 4 0 7-3 7-7 0-3 0-3-3-3s-4 0-4 2l2 1c2 0 2 1 1 3-2 3-6 1-7-3-2-6 1-9 6-9 2 1 3 1 3-1 0-3-8-3-11 1m16 5c0 9 1 11 6 11 6 0 7-2 7-11 0-7 0-8-2-8s-2 1-2 8v8h-3c-2 0-3-1-3-8 0-6 0-8-2-8l-1 8m32 1l-4 9c0 2 3 1 4 0l4-2 4 2 2 1c2 0 1-1-2-9l-4-10-4 9m14 1c0 7 0 9 2 9l1-3v-3l3 3c3 4 7 4 4 0l-2-3 2-3c4-5 1-10-6-10h-4v10m57 0v9h4c7 0 11-4 8-9-1-1-2-2-1-3 2-4-1-7-7-7h-4v10m17-1a1222 1222 0 01-2 10l2-1 4-2c3 0 4 0 4 2l2 1 2-1-8-18-4 9m14 1c0 8 0 9 2 9s2-1 2-4c0-4 0-4 3-4s3 0 3 4c0 3 0 4 2 4l1-9-1-10c-2 0-2 1-2 4 0 4 0 4-3 4s-3 0-3-4c0-3 0-4-2-4s-2 1-2 10m28-1l-4 9c0 2 3 1 4 0l4-2 4 2 2 1c2 0 1-1-2-9l-4-10-4 9M51 192c0 9 4 38 6 39l57 31 56 31 4-2 111-61a584 584 0 005-39c0-1 5-2-61 9l-59 10-57-10a11898 11898 0 01-62-8" fill="#d3d3d3" fill-rule="evenodd"/></svg>