<svg xmlns="http://www.w3.org/2000/svg" width="282" height="300"><path d="M70 25L0 50l5 43a35134 35134 0 0116 135l1 6 58 33 60 32 119-65 12-91 12-92c0-2-4-3-57-21L155 6l-15-6-70 25m27 108l-42 94h12c20 0 17 2 27-22l9-22h24v-8h29v8h13l12 1 9 21 10 21 28 1c0-1-86-186-88-187l-43 93m33 9l-1 5c0 2 1 2 13 2s12 0 12-2l-1-6v-3h-23v4m-1 17l-1 6v3h27v-4c0-8 0-8-13-8h-13v3m-12 75c-8 5-5 21 5 21 10 1 12-1 12-7v-5h-5c-5 0-6 0-6 2 0 1 1 2 3 2l2 2c0 2-1 2-3 2-6 0-9-8-5-12 3-3 6-4 10-1 3 1 3 1 3-1 0-5-10-7-16-3m20-1l4 8c3 4 4 8 4 10 0 4 0 4 3 4 2 0 2 0 2-4 0-3 1-6 4-10 5-8 5-9 1-9-2 0-3 1-5 5l-2 4-3-4c-2-4-3-5-5-5l-3 1m25 11v11h8c7 0 8 0 8-2s-1-2-5-2c-5 0-5 0-5-3s0-3 5-3c4 0 5 0 5-2s-1-2-5-2-5 0-5-2 1-2 5-2c5 0 5 0 5-2 0-3 0-3-8-3h-8v12" fill="#d3d3d3" fill-rule="evenodd"/></svg>