<svg xmlns="http://www.w3.org/2000/svg" width="284" height="300"><path d="M63 49l-2 11c-3 14-3 14-5 10l-3-3 2 4 2 8v4l-3-6-6-10c-4-6-4-7 1-3 6 5 5 2-1-3-9-8-11-6-5 5 3 6 4 13 2 11l-3-1 6 5c7 5 7 5 5 6-3 2-3 2-11-7-8-8-10-10-4-6l4 2-9-7-10-6 4 6 4 4 9 8c9 8 9 9 8 11-2 3-2 3-6-3l-4-4H24c-1 1 0 1 4 1 6 0 11 2 13 4 3 3 2 3-5 0-7-2-14-3-11-1l6 1 9 3 5 3H34c-2-2-3-1-2 0 1 2 1 2-3 3l-4 1 10-1c11-2 10-2 9 1 0 3 0 3-10 3l-9 1h9l10 1 1 3c0 2-1 1-9 0l-10-1 3 1c4 0 4 1 0 4l-3 3 5-2c2-2 5-3 7-3h5l-8 4-8 5 6-2 9-5h2l-2 3c-1 3-3 4-8 5l-7 3h2c7-2 9-2 8-1-1 3 1 2 5-4l5-5v-1c-7-17 9-33 25-25 4 2 5 2 3 0s-2-2 7-8l9-7-5 3-5 3 1-4V63c0-6 0-7 2-9 3-4 2-5-2-2-3 1-3 2-3 5 0 2 0 2-1 1-1-2-1-1-3 4l-3 8-1 1c0 3 3-2 5-7 1-3 2-5 2-3l-4 17c-2 5-2 5-3 3l-1-6v-3c-1 1-1 0-4-14-1-9-2-12-3-9m85 4l7 15 7 15h5l95 3 3-22c0-1-4-3-11-5l-10-4-37-1a5395 5395 0 01-59-1m-43 27l-2 2 2-1c5-1-11 10-16 12s-6 1-3-3c1-2 3-3 6-3 5-1 12-4 11-5l-4 1c-6 3-10 3-9 2 1-3-1-2-5 4-3 5-3 5-5 3s-3 0-1 2c3 3 3 10 2 14-4 12-15 16-26 12-1-1-2-1-1 1l-3 9-3 11c0 7-2 6-2-1 0-5 2-13 5-15 4-3 1-2-5 2l-6 5 4-2c3-2 3-2 3 0l-2 12c0 8-1 10-2 12-3 3-2 3 3 1 3-2 4-3 6-9 2-7 2-8 1-8l-2 7c-3 9-3 7-1-4 2-10 5-19 6-16s2 7 1 8l-1 1 1 1c1-1 1 0 4 14 3 15 3 15 6-4l2-12 2 3 8 9-2-4c-5-6-7-10-7-14 1-2 1-2 3 2l5 10 3 6 1 2 2 6 2 5 1-5c1-4 1-7-2-10-1-2-1-2 0 0 1 3-1 2-5-4s-9-16-7-16 7 5 7 9l3 9-1-6v-6l-4-4c-6-4-6-4-3-6 2-1 3-1 11 8 5 4 8 9 8 9l1 2h1v-1l1-1v-1c2 1 1-1-2-6l-4-4 2 4c4 6 2 4-6-4-9-8-9-8-7-11l1-2 5 7 5 6-1-2c-2-2-1-3 2-2l7 1c3 0 4 0 3-1-8-1-14-2-16-4-2-3-1-3 5-1 7 2 17 4 14 2l-6-1c-6-1-15-5-14-6l5-1c14-2 23-5 23-8l-10-3-10-1 3-2c4-2 7-5 5-5l-2 1c-2 3-9 5-12 5-2-1-2-1 3-3l11-6c6-5 7-6 7-4l4-1c5-1 5-2 3-3h-10m37 52v15h11l11-1-7-15-7-15h-8v16m40-6l8 16 2 6h15l31 1 16 1 2-13 2-16c0-2 0-2-28-2l-40-2h-12l4 9m-72 58h-5l-6 15-6 16 24-1a1132 1132 0 0178 1l-7-16-6-15h-72m-70 2c-6 0-6-1-3 16l1 13c0 2 23 1 24 0l13-29H40m170 0l8 15 6 15h23l1-11 2-15v-4h-40m-94 64l-26 1 19 11 26 15 7 3 26-14 26-14-10-1c-17-1-41-2-68-1" fill="#d3d3d3" fill-rule="evenodd"/></svg>