<svg xmlns="http://www.w3.org/2000/svg" width="278" height="300"><path d="M104 13A27849 27849 0 011 53c-2 1 21 180 23 181l29 17 56 31 30 17 3-2c10-4 116-63 117-64l4-27a56196 56196 0 0014-153l1-3-69-25-69-25-36 13m7 4L10 55l-4 1v6l22 166c0 3 1 4 19 14l56 31 36 20 54-30 58-32c5-2 4-1 7-32a12131 12131 0 0114-146L139 6l-28 11m14 2A14195 14195 0 0113 62l21 162h25c9-1 19-5 27-10 18-11 32-15 56-14 23 0 34 3 55 14 12 7 22 10 39 10h12l2-16 10-104 4-35V59L139 14l-14 5m3 41a84278 84278 0 01-69 153c0 2 1 2 7 2 7 0 8 0 17-5l10-6 6-15 6-14 33-1 35 1 6 14 5 12 9 5 13 7c4 2 14 3 13 1L139 36l-11 24m-1 61l-11 28 23 1c20 0 23-1 23-2l-23-54-12 27m0 98c-11 1-32 9-32 12a1108 1108 0 0090-2c-11-9-40-14-58-10m-78 16l8 5 11 6 4 2v-13H49m34 4c-4 3-4 4-4 8v5l29 16 31 16c1 0 16-7 33-17l32-17-1-4c0-3-1-5-4-8l-4-3H88l-5 4m127 2v5l17-10c2-1 1-1-7-1h-10v6m-98 12c1 2 53 2 54 0 0-2-2-2-27-2s-27 0-27 2m10 6c-2 3 2 4 18 4 15 0 16-1 16-2 0-2-1-3-17-3l-17 1" fill="#d3d3d3" fill-rule="evenodd"/></svg>