<svg xmlns="http://www.w3.org/2000/svg" width="278" height="300"><path d="M127 9A3927 3927 0 0124 46L2 53v6a10525 10525 0 0121 174l7 6a10616 10616 0 00109 59 476 476 0 0057-31 104784 104784 0 0144-24l15-9 2-19 10-93c9-74 9-69 6-69A3245 3245 0 01149 9c-12-5-9-5-22 0m-30 99l-1 32-4 12c-10 28-21 47-40 65l-11 11h72v-64h50v64h74l-4-3c-22-17-37-38-46-62-7-19-7-22-7-56V76h-13v3l-1 5v1c2 0 2 0 1 3-2 1-2 2-1 2l1 16-1 17v1c2 2 1 5-1 3l-2-1 2 2c2 1 2 2 2 6v5h-57l-1-4 1-6v-1c-2 0-1-3 1-4l3-2-3 1h-2V76H97v32m3 2l-1 31-3 10a162 162 0 01-46 74h44v-55h8v55h8v-64h56v64h7v-28l1-27h7v55h46l-9-9c-20-20-33-44-39-70-2-7-2-13-2-38V79h-7v63h-64V79h-6v31m24-14v1h1l1 1c-1 0 0 2 2 2 4 3 4 9 1 11l-3 3c0 2 1 2 3 1 2-2 18-2 20 0 1 2 2 2 3 1 2 0 1-1-3-4-5-3-6-4-4-5l1-3 3-4c3-1 3-2 1-2h-3l-2 1-3 1c-3 1-12-1-15-3-2-2-3-3-3-1" fill="#d3d3d3" fill-rule="evenodd"/></svg>