<svg xmlns="http://www.w3.org/2000/svg" width="280" height="300"><path d="M70 26L1 51l21 181c0 2 7 7 59 35l59 33 59-33c56-31 59-32 59-35l21-179A3453 3453 0 00139 2L70 25m4 5L7 54l21 177 112 62 57-31 56-31v-4l20-172L140 7 74 31m2 4L13 58c-1 1 17 158 17 159l14-4c64-16 113-21 150-15l8 2v-18l3-20 2-6c1-4 2-4 3 0l3 6 2 7c0 4 0 5 2 6 3 2 5 0 5-6 0-3 2-6 3-8l2-5c1-5 3-5 3-1l2 6c2 3 3 4 3 23l1 21 7 1 7 2c1-1 18-149 17-150L141 12 76 35m63 6a65089 65089 0 01-74 163l16-3 16-3 6-13 6-13h63l5 10 5 10 8 2 8 1v-16l1-15-29-62-29-63c-1-1-1 0-2 2m-3 64a3768 3768 0 01-17 37 238 238 0 0042-1l-20-43c-1-1-3 2-5 7m63 112c-6 2-12 13-12 21 0 4-2 5-14 5h-7v-5c-1-6-5-14-8-17-11-10-27 2-27 21 0 5 0 5-11 5l-9 1v-5c-4-23-23-31-33-12-3 5-6 18-4 20l33 19 33 18 36-20c48-26 43-23 42-29-1-13-5-19-11-22h-8" fill="#d3d3d3" fill-rule="evenodd"/></svg>