<svg xmlns="http://www.w3.org/2000/svg" width="180" height="180"><path d="M7 7c-2 1-2 9-2 83v82l3 2c4 3 161 3 165 0l3-2V90c0-78 0-82-2-83C171 4 9 4 7 7m28 11c-6 4-6 3-6 52v44l30 15 31 16 31-15 31-16V70c0-49 0-48-6-52-5-3-106-3-111 0m1 3c-2 1-3 4-4 6-2 6-1 83 0 85l58 30 30-15 29-15V25l-3-3-3-3H91c-52 0-53 0-55 2m65 61l1 1-1 3c-2 2-3 3-11 3l-9 1h8c9 0 12 1 14 8 1 4-2 8-5 7v1l1 4c0 3-2 4-8 4-7-1-9-1-9-4l1-4v-1c-1 1-3 0-4-1-2-3-2-3-1-7l1-5-3 8-4 3-4 2c-2 0 0-10 1-13 1-1 2-2 1-3-2-1-1-2 3-3h6l2 1-1-2c-1 0-2-1-1-2h-2l-4 1c-4 1-7 4-5 5 1 1 0 2-1 5-2 5-1 12 1 12 1 0 2 1 2 3s3 10 4 9l-1-4c-3-6-2-9 1-10 3-2 7 2 7 6l2 4 3 4c0 2 4 3 7 2 1-1 1-1-2-1-4 0-6-3-2-4 3-1 5 0 5 2s0 2 3-1l3-6c0-4 4-8 8-6 2 1 2 1 2 5-1 5-3 9-5 9l-2 2c-1 2-1 2 2 1 2-2 6-8 6-12 0-2 0-3 2-3s2-1 2-4c0-5-3-13-4-12l1 2c1 3 3 12 1 12-2 2-8-2-8-6l-3-5c-4-5 1-9 7-7l3 1-6-3-3-2h-2" fill="#d3d3d3" fill-rule="evenodd"/></svg>