<svg xmlns="http://www.w3.org/2000/svg" width="169" height="180"><path d="M80 2A3340 3340 0 012 30l2 32a645341 645341 0 0010 79l36 20 35 19 5-3 36-19 30-17v-4l1-9 6-44c7-61 6-54 3-55a513 513 0 00-40-14L84 0l-4 2m37 42h-8l-5 9c-6 13-11 20-20 28-15 15-37 31-51 39-6 3-8 5-5 5 4 0 27-15 43-28 21-18 28-26 36-43 4-7 4-7 8-7h4l-5 7-8 12-5 8-9 10c-7 9-21 22-36 33l-9 8a176 176 0 0053-46l-2 6c-2 11-1 29 4 39 3 8 3 3 0-7-4-15-2-33 5-46 2-5 2-3 0 3-4 11-1 37 5 47 3 5 5 2 1-4-5-12-7-32-2-44 2-6 8-16 15-25 2-2 2-5 0-5l-9 1" fill="#d3d3d3" fill-rule="evenodd"/></svg>