<svg xmlns="http://www.w3.org/2000/svg" width="133" height="143"><path d="M33 13L2 25c-1 1 7 71 9 83 0 3 1 4 7 7l7 4v-10l1-9v20l6-1 6 1-5 1c-3 0-4 0-3 1l5 1 3 1c-1 1 0 2 1 2 1 1 1-1 1-13 0-13 0-13 1-3v11h7v-14l1-14v14c0 13 0 14 2 14s2-1 2-14c0-14 0-14-2-14-2-1-2-1 0-1l2-2h1c0 2 2 3 2 1h8l2 1 3 1h-3c-2 0-3 4 0 5l-1 1-1 1 1 1h1l-1 1-1 4 1 3v4l-1 4c0 4 0 4 3 4 2 0 2 0 2-9l1-9h9l8 1H70v18l1 17 3-1-1-1c-1-1-1-1 1-1 4 0 8-2 8-4-1-1 0-1 2-1h3v-28l1 13c0 10 1 13 2 13s2-3 2-14l1-10c0 3 0 4 3 4l3 1h-3l-3 1 3 1 3 1h-3l-3 1 3 1h3l-3 1-3 1h2l3 1-3 1-2 1h2l3 1-3 1c-2 1-2 1 1 1l3 1v-22h-3c-2 0-3 0-2-3 0-2 0-2 1 0 0 2 1 2 3 2h3v-6l1-6 2 1-1 1c-1-1-1 1-1 4v6h5c4 0 4 0 4-3l1 8c0 11 0 11 2 10s2-2 2-11v-9l1 9v10l1-10c1-13 2-14 2-2a1235 1235 0 0011-78L66 2 33 13m-5 27c-3 6-3 9-2 9l2-2c1-1 2-2 5-2l4 2 2 2c2 0-4-16-6-17l-5 8m28 0c-3 5 1 10 5 9l2 1c0 3-3 4-4 2l-3-1c-2 1 2 4 5 4 4 0 5-2 5-10v-7h-4c-4 0-5 1-6 2m33 0c-2 1-2 6-1 8l6 1h4V38h-4l-5 2M33 82c0 5 0 6-2 6l-2 1-2 1c-2 0-2 1-1 4 1 2 2 2 7 2h6l-6 1-4 1 1 1v1l1-1 3-1 2 1h2l1-3 2-2c2-2 1-3-7-2h-8l8-1c7-1 7-1 0-1h-4l4-1 2-1c-2 0-2-1-2-6l-1-5v5m21 25l1 14 1-3 1-1 1 2c0 2 0 2 1 1v-2l1-1 1 2 1 2 1-12-1-12-1 4-1 2-1-1-1-4v3l-1 2c-1 0-1-7 1-9 1-1 1-1-1-1h-3v14m46 6v10c2 0 7-4 6-5l3-1h3l-3-1c-3-1-3-1-1-1 3 0 4-2 0-2-1 0-2 0-1-1 4-1 4-1 2-2-3-1-3-1-1-1s3-1 3-3v-4h-11v11m-41 15l-1 6v2l1 1 1 1 2 1c2 0 2 0 0-2-1-2-1-2 1-2 2 1 2 1 2-1l2-2c2 0 2-1 2-5v-5H59v6" fill="#d3d3d3" fill-rule="evenodd"/></svg>