<svg xmlns="http://www.w3.org/2000/svg" width="242" height="280"><path d="M110 11v11l55 20 55 20-18 143c-4 2-16-3-23-10-8-7-10-10-21-37L112 53c-2-4-2-7-2-18V22L2 62c-1 1-1 5 9 85l8 58c1 1 10-1 15-4 12-7 15-12 28-42l29-66 19-42v25c0 21 1 26 2 29l31 71 2 5h-8c-8 0-15 2-22 5l-5 2v28l-5-5c-12-10-23-11-42-6-16 5-25 6-39 2-2 0 5 4 60 35l26 15v-40l5-5c12-11 22-12 40-7s31 6 42 2c4-1-3 3-38 23l-43 24-6 3v23l111-62 7-58 13-108 1-4-13-4A74131 74131 0 01111 1l-1 10M93 140l-17 40 6 1c8 0 16 1 23 4l5 3v-86l-17 38" fill="#d3d3d3" fill-rule="evenodd"/></svg>