<svg xmlns="http://www.w3.org/2000/svg" width="200" height="212"><path d="M81 7A27741 27741 0 010 35a404 404 0 006 52c6 57 9 78 10 79l80 44a2455 2455 0 0086-45l17-128A3886 3886 0 0098 1L81 7m14 26a331236 331236 0 01-57 126c0 2 0 2 11 2h11l6-16 6-15h56l6 15 7 16h21L99 27l-4 6m7 30l-1 4c-2 3-3 2-3 0 1-4-3-5-7-2-3 3-3 4 0 4 2 0 2 1 0 5-1 3-2 4-4 4s-4 3-3 5c0 2 2 1 2-1l1-3c1 0 2 1 2 3l2 3v-1c-2-2-1-4 1-4l2 1 6 6 2 2c2 2 1 2-2 4s-4 2-6 1H81c-2 2 1 7 3 7l2 1 16 1h16v-4l-2-8-2-4-4-7-4-7c0-4-4-13-4-10" fill="#d3d3d3" fill-rule="evenodd"/></svg>