<svg xmlns="http://www.w3.org/2000/svg" width="253" height="300"><path d="M115 13c-2 2-8 4-18 7-15 5-21 9-24 14-1 3-3 3-3 0s-1-3-6 1c-8 6-14 15-17 27-2 6-2 6 0 9 6 8 7 13 4 21-3 5-4 6-4 3 0-1-2-3-7-5l-8-6-1-2-2 2-2 2-3-3a56 56 0 01-9-48c0-2 0-2-1-1-3 4-4 20-3 29 2 16 15 34 31 44l6 4v29c-2-4-4-18-4-22 0-3-1-4-7-8-7-5-15-13-20-19-4-6-4-9 3 58l3 31c0 2-1 2-7 2H9v4a1118 1118 0 015 48l8 1c7 0 7 0 7 3a10279 10279 0 0187 50c11 5 12 6 16 4l10-6a25492 25492 0 0084-48c1-2 1-3 8-3h7v-3a500 500 0 005-43v-7h-7l-7-1a967 967 0 018-79l1-13-9 8-14 13c-7 5-7 4-7 13l-2 13c-2 4-2 3-2-11l1-15 3-2c15-8 29-25 32-40 3-11 2-29-2-34v1c3 20 1 31-8 45-5 6-6 7-7 4 0-2-1-2-5 2l-8 5c-3 1-4 2-4 4 0 3-2 1-5-3-2-5-1-18 2-17 1 1 1 0 1-1l2-3c5-5-7-29-18-36-5-3-6-4-6-1 1 3-2 2-3-1-3-4-9-7-23-12s-16-6-20-9c-3-3-4-2-6 4-1 4-3 4-4 0-1-1-2 0-3 1l-3 3v-3c-2-6-4-7-8-4m-7 16c-1 2-4 5-8 7l-7 6c-2 3-3 2-4-2-2-6-2-6-6-2-3 4-4 7-3 13 2 5 1 5-5 4-7-2-12 0-15 4-4 6-2 15 3 18 3 2 4 1 5-5 0-6 1-7 3-4l4 3c12 5 14 6 6 6-5 0-13 3-14 6l6 2c9 3 17 7 24 12s12 6 12 0c0-4-2-10-7-14l-3-4c2 0 7 5 12 11l12 12c2 0 1 1-4 2-9 3-11 5-10 11l-1 11-1 6h3c5-2 6-1 2 2l-4 4c0 2 7 8 10 9 8 2 25 0 25-3l3-3c3-2 2-4-4-8l-2-2 4 1h5l-2-4v-14c1-3-3-7-10-10l-6-1 3-2 6-7 14-14-2 4c-6 7-7 17-2 17 2 0 9-3 10-5s17-9 22-11c4 0 6-1 6-2 0-3-7-5-13-6-7 0-7-2 1-5 3 0 6-2 8-4 3-3 3-3 4 3 1 7 1 8 4 6 7-4 8-14 2-19-3-4-7-5-14-3-6 2-6 1-5-4 2-6 1-9-3-13-3-4-4-4-6 2-1 4-2 5-3 2l-7-6-9-7-2-2-1 3-3 7-1 5-2-3c-3-4-4-5-4-2 0 2-5 10-6 10-2 0-6-7-6-9 0-4-2-4-4 1l-2 3-2-5-2-8-2-2-2 2M75 95c0 4 3 9 6 11 7 3 15-2 12-6-4-4-18-8-18-5m96 1l-7 3-3 3 2 2c5 6 15 2 17-6 1-4 1-4-2-4l-7 2m-103 6c-2 3-1 7 1 11l2 4c-1 0-9-6-12-10-4-4-4-4-5 5 0 8 2 17 5 21l2 2v-3c1-6 3-6 3-1 0 7 3 14 7 15l3 3c0 2-7 3-11 3l-4-1 3 3a8597 8597 0 0117 18c3 7 4 5 4-4 1-8 0-8 5-4 5 3 9 11 9 16 0 4 0 4 2 3 3-2 4-3 3-5-2-2 0-10 3-13l2-3-2-3c-8-8-10-28-4-41 0-2 0-2-2-2l-7 2h-5l4-2c7-4 6-5-1-5-8 0-13-2-18-7-3-5-4-5-4-2m114 3c-5 4-9 6-17 6-6 0-6 0-5 2l5 3c2 0 3 1 3 2l-12-1v6c4 13 1 30-5 36-3 2-3 3-1 4 3 3 6 16 3 16-2 0 4 5 5 5l1-4c0-6 3-12 7-16 6-4 6-4 6 3l1 9 1 3 2-5c3-7 5-10 12-16 7-5 7-6 3-6s-9-2-9-4l1-1c4 0 9-9 9-16 0-4 1-3 2 2 1 2 1 2 3-2 4-6 5-17 4-24l-1-4-2 3c-2 3-13 11-14 11l2-4c2-3 3-11 1-12l-5 4m-73 46c-2 3-1 5 4 6 5 2 6 4 2 5-5 2-4 1-2 5 3 4 13 9 11 5-1-1 3-2 7-2 1 1 2 1 1 2-2 4 8-2 11-6 2-3 2-3 0-3l-4-2-2-2 5-2 6-3c0-3-3-4-7-3-6 3-22 2-30-1l-2 1m16 33l-1 3-2-3-1-3-4 4c-3 2-4 4-5 6v4l-4-2c-11-4-20 3-20 16 0 12 5 17 16 17 9-1 11-3 11-11v-7h-7c-6 0-7 1-7 3 0 1 0 2 3 2 4 1 4 6 1 7-4 0-7-1-8-3v-16c2-4 8-4 10 0 0 2 1 2 4 2 4 0 4 0 4-5 1-4 2-6 3-5l1 13c1 14 2 17 8 19 5 2 12 1 15-3 3-3 3-3 3-17l-1-13-1-2-8-8-2 3-1 2-2-3c-2-5-3-5-5 0m-91 9l-12 32h8l1-3c0-2 1-2 6-2s6 0 7 3 1 3 4 3l4-1-5-17-6-16h-4l-3 1m22 3l-1 17 1 13h8v-19l6 9c4 9 6 11 11 10 1 0 2-2 2-17v-17h-4l-3 1-1 9v10l-6-10c-5-9-6-10-9-10-4 0-4 0-4 4m94-3v17l1 16h21v-3c0-3 0-3-5-3-9 0-9 1-9-15v-13h-4l-4 1m36 0l-12 32h8l1-3c0-2 1-2 6-2s6 0 7 3 1 3 4 3c5 0 5 0 2-9-10-27-9-25-13-25l-3 1m21 0v17l1 16h7v-6c1-8 3-8 8 0 2 4 3 6 5 6 6 0 6 0 3-7-4-6-4-7-1-9 4-4 4-12-1-15-4-3-21-4-22-2m-73 11l-5 7c-3 4-1 8 3 9 4 0 5-2 5-11v-9l-3 4m-66 38v6h3c5 0 6-1 6-7-1-5-2-6-6-6-3 0-3 0-3 7" fill="#d3d3d3" fill-rule="evenodd"/></svg>