<svg xmlns="http://www.w3.org/2000/svg" width="168" height="180"><path d="M43 16L1 31a1000 1000 0 0010 89l3 21 67 37 4 2 15-9 31-17c24-13 24-13 24-16a722 722 0 008-70c5-42 5-37-1-39a737 737 0 00-40-15L84 1 43 16m22 6a1718 1718 0 00-21 124c0 2 0 2 6 2h7v-25h20v25h15v-25h20v24h12l-1-16c0-13-1-17-2-18s-2-5-2-18l-3-18-1-8-2-7c-1 0-3-6-6-20l-4-21-4 20c-3 19-4 22-5 22-2 0-2 1-2 8l-1 7-1 4c0 5-1 6-6 6h-4l-1-5-1-5-1-8c0-6 0-7-2-8-1 0-2-4-5-21l-5-19m-2 78c-4 5-6 10-6 14v3h20v-3c0-6-7-18-10-18l-4 4m35-1c-3 5-6 11-6 15v3h20v-3c0-6-7-18-10-18l-4 3" fill="#d3d3d3" fill-rule="evenodd"/></svg>