<svg xmlns="http://www.w3.org/2000/svg" width="169" height="180"><path d="M42 15L1 30a2948 2948 0 0014 107c0-1 0-2 1-1l2 1 1-1 1 1c1 2 1 2 1-1 0-7 3-2 3 6 0 5 2 8 4 6l1 1h21c2 3 4 0 4-5 0-6 2-10 2-4 0 2 0 3 1 1 0-2 2-3 2-1h2c0-2 2-1 2 1 1 2 1 1 1-1v-3l2 2 1 7c0 4 2 6 3 3h7l2 1c2 0 2-1 2-4l1-7c0-2 0-2 1 1s1 3 2 1l1-1h2c2-1 2-1 2 1 1 2 1 2 1-1 0-7 3-2 3 6 0 3 0 4 2 4 2-1 3-12 1-13v-20l3-12 2-7 3-8 2-4c1 0 5 12 6 19l2 9c2 4 2 7 1 27v22l9-5 9-6c-3-6-6-9-8-8-4 0-8-4-5-5 1-1 1 0 1 1 0 2 3 3 5 2v-1c-2 0-3-2-1-2l-1-1c-3-1-3-1-1-1 1-1 2-2 2-11s-1-10-2-11c-2-1-2-1 1-1 2 0 2 0 1-1-2-2-2-2 0-2 1-1 1-1-1-2l-2-1h2c3 1 3 0 5-3l6-9 3-4 2-1c2-1 2-1 1-2s-1-1 1-1l7-2 8-3 5-2a644 644 0 015-52A1017 1017 0 0184 0L42 15m-5 26l-4 11c-5 11-4 10-2 10l3-3c1-3 1-3 6-3 4 0 5 0 6 3l3 3c2 0 3 1-2-12-5-11-8-14-10-9m23 5h-5c-2 0-2 0-2 8 0 7 0 8 2 8s2-1 2-6c1-11 7-11 7 0 0 5 0 6 2 6s2-1 2-5c0-9-3-12-8-11m15 0c-3 1-5 5-3 7 1 2 1 8-1 9-4 5 8 8 13 4 4-4 2-6-5-8-5 0-5-2-1-2 3 0 6-3 6-5l1-3 1-1c-1-1-9-2-11-1m43 0l-3 2c0 2 1 2 4 1h3c3 2 2 4-2 4-5 1-6 3-6 6 1 3 1 3 7 3h6v-7c0-8-3-11-9-9m-29 7c0 8 1 9 8 9h6v-8c0-7 0-8-2-8s-2 1-2 6c0 11-6 11-7 0 0-4 0-6-2-6l-1 7m64 41c-4 2-5 4-3 6l1 1-2-1-2-2-3 3-8 13c0 1 5 3 11 4l11 4 1-4c0-3 0-4-4-9l-4-7 4 4c4 6 5 6 6-5 0-10 0-11-8-7m-115 6l-5 4-2 5-1 7c-1 3-1 3 2 6l3 4c0 5 13 6 21 2 7-5 7-6 7-10v-5c1-2 1-3-1-5l-2-4c0-3-4-6-12-6l-7-1-3 3m2 6c-2 1-5 12-4 14 1 3 4 1 6-5 2-5 5-7 4-3-3 9-1 9 3 1 3-5 4-3 1 2-1 4 0 7 4 7 2 0 3-1 0-3v-6c2-4 2-6 1-6-1-2-13-2-15-1m94 14c0 4 0 14 2 15 1 1 19-5 21-7 3-4 2-5-20-11-2-1-2-1-3 3m-35 7v7h16v-15H99v8m2-6l-1 6v6h13v-13h-6l-6 1m45 13c-11 4-10 3-8 8 4 7 4 7 11 3 6-4 7-4 7-8 2-7 2-7-10-3m-46 17v4h13v-9h-13v5m0 10v4h13v-9h-13v5" fill="#d3d3d3" fill-rule="evenodd"/></svg>