<svg xmlns="http://www.w3.org/2000/svg" width="204" height="233"><path d="M97 2l-4 3-2 1a405 405 0 00-54 24l-2 1-8 4A7275 7275 0 005 45c-4 0-4 2-2 24l6 63c4 47 3 44 10 47l3 2 1 1 4 2a199 199 0 0024 16l12 7c18 13 30 21 35 23l5 3 13-9a6476 6476 0 0176-50l4-47a1049 1049 0 007-77l1-3-10-5a15213 15213 0 01-56-26L111 4c-6-3-10-4-14-2m2 22a1167 1167 0 00-14 38c3 0 3 0-5 9l-6 8h3l3 1-9 12-10 13h4l4 1-9 12-12 14c-3 2-3 4 2 4h4a346 346 0 01-22 31l12 1h13l8-17 9-17h56l6 10 8 16 4 7h19l-1-3-20-26c-2-2 0-3 3-3h4l-4-6-11-15-7-9h9l-9-13-9-12 3-1h3l-4-5-7-8c-3-3-3-4 0-4l2-1a1655 1655 0 01-15-37l-3-6-2 6m2 45l-19 44 39 2-4-13-7-17c-5-14-8-18-9-16" fill="#d3d3d3" fill-rule="evenodd"/></svg>