<svg xmlns="http://www.w3.org/2000/svg" width="283" height="300"><path d="M78 39L18 61c-1 1 16 152 17 161l1 3 50 4c57 4 53 4 104 0l48-4 9-1 10-83 11-81-12-4-116-39-62 22m61-9L55 218l32-1 8-21 9-20 39-1h39l9 22 9 22h30a36969 36969 0 00-91-189m-11 89l-12 30h54l-14-30-15-30-13 30M70 251v13h3l7 1c7 1 11-7 6-12-2-2-2-2-1-3 2-1 3-7 1-10-1-2-5-3-10-3h-6v14m125-13c-2 1-10 29-8 29l2-4c2-5 11-6 13-1 0 2 1 3 2 3 2 0 1-1-3-14-4-15-4-14-6-13m-20 1c-7 0-9 1-9 2 0 2 0 2 3 2l4-1v13c0 12 0 13 2 13s2-1 2-13v-13h4c2 0 3 0 3-2l-1-2-8 1m-80 3c-2 3-3 15-1 19 3 6 11 8 15 4 4-5 4-19-1-23-3-4-10-4-13 0m27-1c-8 4-7 24 2 28 7 3 13-2 13-10 0-4-2-5-8-5-3 0-2 3 1 4 5 0 3 8-3 8-4 0-6-4-6-11 0-11 5-14 10-8l4 2c3 0-1-6-5-8h-8m28 0c-5 3-7 13-5 22 2 7 10 10 15 4 4-4 5-21 1-25-3-2-7-3-11-1m-52 3c-3 3-3 14 0 17 5 6 10 2 10-8s-5-14-10-9m52 3c-2 2-2 4-2 8 0 8 2 11 6 11s6-3 6-11c0-10-5-15-10-8" fill="#d3d3d3" fill-rule="evenodd"/></svg>