<svg xmlns="http://www.w3.org/2000/svg" width="178" height="188"><path d="M80 3A4031 4031 0 011 31l4 37a9788 9788 0 019 74v5l37 20 37 20 7-3a5905 5905 0 0068-38 2031 2031 0 0014-113c0-2-1-3-22-10C80-2 89 0 80 3M55 42c-7 5-8 12-2 30 5 14 5 22 2 24-2 2-2 2 0 6 3 5 2 8-3 23-7 17-6 25 1 30 4 3 60 4 66 1 8-5 8-14 2-30-5-14-6-20-3-24l1-4-3-4c-1-4 0-10 4-23 7-20 4-30-9-31h-5l3 2c8 5 9 12 4 27-3 11-2 19 1 25v8c-3 6-3 15 1 27 3 13 4 14 2 18-6 10-48 12-59 2-4-4-4-7 0-20 4-12 4-22 1-27-2-3-2-4 0-8 3-7 3-13 1-24-5-17-4-24 4-28l4-2h-5l-8 2m13 65v17h2c2 0 3-1 3-9l1-9 3 9c2 7 4 9 5 9 2 0 2-1 2-17s0-17-2-17-2 1-2 10c0 11 0 11-4-1-3-7-4-9-6-9h-2v17m24-15c-3 2-3 2-3 15s0 13 3 15c3 3 6 3 10 0 2-2 2-3 2-10l1-6-5-1c-3 0-4 0-4 2l2 2c2 0 2 1 2 5-1 5-3 6-6 4-1-1-2-19 0-22 1-2 5-1 6 2 0 2 3 3 4 1s-1-7-4-8c-3-2-5-1-8 1" fill="#d3d3d3" fill-rule="evenodd"/></svg>