<svg xmlns="http://www.w3.org/2000/svg" width="300" height="300"><path d="M117 93l-31 11-40-10C1 83 2 83 0 91c-2 11 5 24 15 30 5 2 5 3 5 7 0 9 7 20 16 25 4 2 4 2 4 6 0 10 7 21 15 25l32 9 29 7 17 9 17 9 17-9 17-9 29-7 32-9c8-4 15-15 15-25 0-4 0-4 4-6 9-5 16-16 16-25 0-4 0-5 3-6 6-3 11-8 14-14l3-7V90l-1-1-2-3c-2-2-6-1-43 8l-40 10-32-11-32-11-33 11m2 4l-28 10 4 40 5 39 5 3 6 3c1-1 1-1 0 0l1 1h2c-1 1 9 6 10 5v1l1 1h2c-1 1 7 5 8 4v1l1 1h1l1 1h2c-1 1 7 5 8 4l1 1c-1 1 0 1 1 1s2 0 1-1l1-1c1 1 9-3 8-4h2l1-1h1l1-1v-1c1 1 9-3 8-4h2l1-1h1l1-1v-1c1 1 9-3 8-4h2l1-1c-1-1-1-1 0 0 3 0 12-6 12-8a1874 1874 0 018-77l-59-20-31 10m4 3c-25 9-28 10-28 12l8 72 24 12 23 13 23-13 24-12 8-72a2180 2180 0 00-53-21l-29 9m33 9c-3 1-4 5-4 11 0 9 5 14 12 11 4-2 4-2 4-7 0-4-1-5-4-5s-4 0-4 2l2 2c1 0 1 4-1 4-2 1-5-3-5-7 0-7 4-10 6-6 2 2 5 3 5 0 0-4-6-7-11-5m-23 11c0 10 0 11 2 11s2-1 2-7l1-6 3 6c2 6 3 7 5 7h3v-22h-2c-3 0-3 0-3 7v7l-3-7c-3-6-4-7-6-7s-2 0-2 11m-12 19l-7 19c0 2 0 2 2 2s3-1 3-2l4-2 4 2c0 2 5 3 5 2a586 586 0 00-9-22l-2 1m13 10c0 10 0 11 2 11 1 0 2-1 2-4 1-5 3-5 5 0 1 3 2 4 4 4s2 0 0-5c-2-3-2-3 0-6 2-2 2-4 2-6-1-4-4-5-10-5h-5v11m21-3c-5 14-5 14-2 14l3-2c0-1 1-2 4-2 2 0 3 1 3 2l3 2h3l-4-11c-3-9-4-11-6-11-1 0-2 1-4 8m15 3v11h6c6 0 7 0 8-2v-12c2-5-1-8-8-8h-6v11m-27 40l-2 4c0 2 1 3 9 3 10 0 12-2 8-6-2-3-12-4-15-1" fill="#d3d3d3" fill-rule="evenodd"/></svg>