<svg xmlns="http://www.w3.org/2000/svg" width="287" height="300"><path d="M67 23L2 47l5 52a11434 11434 0 0116 135 3693 3693 0 00111 62c9 5 9 5 14 2l59-33 56-31 1-15a77719 77719 0 0120-167v-5l-6-3-65-23-59-21h-22L67 23m46 15l-1 89v88H94l-17 1-3 2-2 6v3h144l-1-3c0-2-1-5-3-6l-3-3h-38v-4l2-25c1-32-3-52-11-71l-4-7 3-3c1-2 3-3 4-2 3 0 5-1 5-3-1-2-3-2-9-2h-8l-3-4c-6-9-14-19-24-29l-10-11v-8c0-9-1-11-3-8m3 65l1 39h4v-36c0-32 0-36-2-39l-2-3-1 39m9-15v10h6l5-1-9-17c-2-2-2-2-2 8m0 15a134 134 0 001 27l10-27h-11m19 0l3 10a264 264 0 017 95c-2 8-3 7 5 7s7 1 9-18c2-23 0-46-5-65-2-9-8-21-9-19l-2 1c-2 0-3-3-1-5 3-2 0-6-4-6h-3m-11 21l-6 17 11 1 11-1c0-5-7-31-9-33l-7 16m-17 39c0 16 1 17 3 17h2v-33h-5v16m9-2c0 12 0 14 1 13l11-14 10-13h-22v14m15 3l-11 15c-1 1 1 1 10 1h12v-11l-1-14v-4l-10 13m-23 21l-1 15v15h5v-15c0-15 0-16-2-16l-2 1m8 0v14l1 12 11-13 11-13-11-1-12 1m14 17l-11 13h19l1-3 3-23-12 13m-61 19l-1 1a1339 1339 0 00133 0c-1-2-131-3-132-1" fill="#d3d3d3" fill-rule="evenodd"/></svg>