<svg xmlns="http://www.w3.org/2000/svg" width="252" height="271"><path d="M97 11l-27 9-6-6-6-6-8 4-8 4 1 11a12136 12136 0 014 98l7-1 7-1v-9a3860 3860 0 00-2-80l33-12 32-11 31 11 33 12c2 1 2 2 2 21l-2 44v24l7 1h7l4-97 1-11-8-4-8-4-6 6-6 6-27-9-28-10-27 10M32 21l-6 2v13l-13 5-13 4 10 80 9 82 7 6 8 4 1 6c0 6 0 7 6 11l6 4-5-105h-6l-5 1v17l-5 1-4 2c-1-1-12-101-11-102l16-6a2082 2082 0 013 82l12-2-4-107-6 2m180-2a1551 1551 0 00-5 98v9l6 1 6 1a1751 1751 0 004-81c0-1 14 3 15 5 1 1-9 95-11 100 0 2 0 2-5 0l-4-1v-17l-5-1h-6a43786 43786 0 01-4 98v6l5-4 6-3v-12l8-4 8-5 18-164-13-5-12-4V24l-5-3-6-2M104 61v16h6V60l3 8c2 8 3 9 5 9h3V44h-2c-3 0-3 0-3 10l-1 9-2-10c-3-9-3-9-6-9h-3v17m25-15c-2 2-3 3-3 13 0 12 1 16 5 18 7 3 12-1 12-11v-6l-5-1c-4 0-4 0-4 2s1 3 2 3l1 4c0 4-1 5-2 5-2 0-3-1-3-12V49h2c2 0 3 1 3 3s1 3 3 3 2-1 2-4c0-6-8-9-13-5M87 84c-3 3-3 15 0 17 1 2 5 2 7 1V84c-1-2-5-2-7 0m56 0c-2 1-2 2-2 8 0 9 1 11 5 11 3 0 5-2 5-6 0-3-3-3-3 0l-2 3c-2 0-2-13 0-14 1 0 2 0 2 2l2 2c2 0 1-5-1-6l-3-2-3 2m-70 9v10h3c5 0 7-2 7-10s-1-10-6-10h-4v10m25 0c0 8 0 10 2 10l1-6c0-6 0-5 2 3 1 5 3 3 5-3l1-5v5c0 5 0 6 2 6l1-10c0-10 0-10-2-10-3 0-3 1-3 5-1 6-3 6-3 0-1-4-1-5-4-5-2 0-2 0-2 10m24 0c0 8 0 10 2 10l1-5v-5l2 5 3 5c2 0 2-1 2-10l-1-10c-2 0-2 1-2 6v6l-2-6-3-6c-2 0-2 1-2 10m34-8c-3 13-3 18-1 18l1-2 2-2 2 2 2 2V93c-2-10-2-10-4-10l-2 2m10 8c0 8 0 10 2 10l1-5v-5l2 5 3 5c2 0 2-1 2-10l-1-10c-2 0-2 1-2 6v6l-2-6-3-6c-2 0-2 1-2 10m-73 36l-31 10-1-5-1-5-7 1-6 1 1 8a2921 2921 0 014 94v9l5 3 6 4 5-5 4-6a94035 94035 0 0153 29l48-26 5-3 4 6 4 6 5-4 6-4v-7l5-103-13-3-1 5-1 5a669 669 0 01-63-21l-31 11m1 5l-31 11v50l7-1 11 1 6 2 9-4 14-4h5v-13l-2-15c-2-4-5 5-5 14s-2 8-2-2c-1-5 0-7 2-11 2-5 2-5 0-5-5 0-8 4-8 12 0 4 0 4-2 2-2-4-1-12 1-15l6-2c6-2 2-5-6-4-6 0-6-2-1-4l5-1 2 1c2 0 3 0 5 2s2 2 3 0c4-6 13-9 17-6 2 2 1 2-3 3-4 0-10 2-10 5h8l3 1 1 1 2 1c3 1 5 8 4 12l-1 3-2-4c-2-5-7-9-10-9-2 0-2 0 1 3l2 4 1 1c2 0 1 9-1 11-1 1-1 1-1-1 2-5-4-14-8-14-2 0-2 1 0 7a199 199 0 013 31v-7l6 3c9 4 10 4 10-1 0-4 0-5 3-7s3-2 1-2c-3 0-6 2-8 4l-2 1c0-6 4-9 11-8h3c0-1-4-4-6-4l-2-1 3-1c3 0 6 3 7 6h9c4 1 4 3-1 2l-4 1v1c3 0 5 5 5 8-1 2-1 3 3 4s5 1 11-2l11-3 7-2a240 240 0 00-1-44l-56-20-5-2-30 11m-68 24c-4 2-4 1-1 20 2 18 1 17 5 16l3-1v-16c-1-22-1-21-7-19m191 13l-1 19v6h6l2-15c3-22 3-21-1-23l-5-1-1 14m-79 40l-1 7c-1 9 0 10 15 14l9 2c3 2 22-8 22-12 0-3-3-4-8-4l-12-4c-7-3-13-4-18-5l-7-1v3m-72 6v8l8 4 8 4 5-1 9-3 7-3 4-1c3 0 3 0 3-2l1-3 1-1-7-1c-5 0-8 0-17-4l-16-5h-6v8m51 0c-1 10-1 11 9 11h8l1-9 1-9-9 3-9 4v-4c0-3-1-3-1 4" fill="#d3d3d3" fill-rule="evenodd"/></svg>