<svg xmlns="http://www.w3.org/2000/svg" width="279" height="300"><path d="M70 25L1 49c-1 1 19 184 20 186l60 33 59 32 59-33 60-33a6970 6970 0 0020-186l-70-24-70-24-69 25m53 17c-38 10-60 53-45 88 1 4 1 4-1 8-6 10-1 23 12 29l-3 4c-8 13-2 26 15 32 7 2 7 2 1 4-9 2-25 12-25 15l8 9 9 9 23 3 23 3 22-3 23-3 9-8 8-10c0-3-17-14-26-15-3-1-4-3-1-3 6 0 20-11 22-17 1-5-1-12-4-16l-3-4 4-2c10-5 14-17 9-27l-2-4 2-7c10-28-3-63-29-78-15-8-35-11-51-7m4 3c-37 8-59 46-47 81 0 3 1 5 2 5l3-2c3-1 3-2 2-5 0-5 1-10 5-14l5-8c2-6 6-11 12-12l4-1v-5c0-10 4-15 11-15 4-1 4-1 6-6l6-9 3-5 3 2c3 3 6 9 8 14 1 4 1 4 5 4 7 0 11 5 11 13 0 7 0 7 3 7 7 2 14 9 14 15 0 2 1 3 3 5 4 3 6 7 6 14-1 5-1 5 3 6 3 2 3 2 4-1 3-7 4-16 4-24-2-39-39-67-76-59m9 14l-3 7v2l7 1c8 0 8 0 5-7-4-9-5-9-9-3m-16 15c-3 2-3 3-3 9v6h46v-5c0-6-2-10-5-11a169 169 0 00-38 1m-11 19c-3 1-9 7-9 10 0 2 1 2 3 2 7 0 16 7 16 12 0 2 2 2 20 2h21v-2c2-7 9-12 16-12l4-1c0-2-3-7-6-9s-4-3-32-3l-33 1m-8 16l-7 4c-3 3-3 4-3 8l1 6h5c4 1 10 3 11 5 1 1 5-1 7-5 4-10-3-19-14-18m71 0c-9 3-12 15-4 22 2 2 2 2 5-1l9-3c6 0 7-1 7-5 0-9-9-15-17-13m-52 15l-1 2-3 6c-4 3-4 4-3 7s2 3 7 3c6 1 12 3 17 8l3 2 4-3c5-4 12-7 18-7 2 0 3-1 4-3 2-3 2-3-1-6-2-1-3-4-4-6l-1-4h-20l-20 1m-33 8c-6 3-8 7-8 15 0 16 18 23 28 11 12-14-3-34-20-26m90 0c-6 3-8 7-8 15 0 16 18 23 28 11 12-14-3-34-20-26m-86 5c-9 3-9 16 0 20s18-8 12-16c-1-2-7-5-8-5l-4 1m90 0c-9 3-9 16 0 20s18-8 12-16c-1-2-7-5-8-5l-4 1m-91 5c-1 1-2 2-2 5 0 7 8 10 12 4 5-6-3-14-10-9m90 0c-3 2-3 8 0 10 3 3 7 3 10-1 5-6-3-15-10-9m-64 4l-1 3c0 3 1 3 9 6 4 1 9 5 8 7-2 3-12 2-16-2-4-3-6-2-5 6 2 14 9 19 28 19 20 0 27-5 29-19 1-7 0-10-3-6-5 4-11 5-16 3l-2-2 2-2c1-2 4-4 8-5 7-2 8-2 7-6 0-3 0-3-5-2-7 1-15 5-18 11-1 1-1 1-4-3-5-5-19-11-21-8m-10 18c-2 1-2 3-2 8 1 14 14 21 40 20 14-1 21-3 26-9 6-6 7-16 3-19-1-1-1-2-3 7-3 11-11 16-28 17-20 1-31-5-33-20-1-5-2-5-3-4m-15 6c-12 13-4 27 20 33 16 3 49 2 65-2 18-6 24-20 12-31l-3-3 1 4c2 12-2 19-13 25-13 6-43 8-61 2-14-4-22-16-18-28 1-3 1-3-3 0m6 1c-4 16 6 24 32 27 35 4 58-7 54-26-2-6-4-7-5 0 0 10-6 17-18 21-9 3-34 2-42-1-11-4-17-12-17-21 0-5-2-6-4 0m23 39c8 5 27 5 37 1l6-3h-47l4 2m-19 0c-7 3-13 6-18 10l-2 2 7 8 8 8 22 2 22 3 22-3 22-2 5-5c8-9 10-11 8-13-3-3-14-8-21-10s-7-2-7 0c0 4-7 10-13 11-18 6-40 2-44-9-3-5-3-5-11-2m12 0l3 4c10 9 37 9 48 0 3-4 2-5-2-2-10 7-34 7-45-1l-4-1" fill="#d3d3d3" fill-rule="evenodd"/></svg>