<svg xmlns="http://www.w3.org/2000/svg" width="237" height="300"><path d="M101 3A2365 2365 0 012 39l1 12a5016 5016 0 0113 117c1 13 1 12 13 19a9635 9635 0 0179 43l19-9a28886 28886 0 0172-40l16-141a8589 8589 0 01-49-19C104-1 108 0 101 3M86 75a391698 391698 0 01-44 100l12 1h13l6-16c5-14 7-17 9-17h55l1 4 7 17 5 12h25l-11-26-32-70-24-53-22 48m12 24l-8 22h37a634 634 0 00-19-44L98 99m70 175c0 13 0 14 2 14 1 0 2-2 2-14 0-13 0-14-2-14s-2 1-2 14m-84-11l-1 13c0 11 0 12 2 12 1 0 2-2 2-6l1-5 5 5 6 6c3 0 2-1-4-8l-5-5 6-6c4-5 5-6 4-7s-3 0-7 5l-6 7v-6c0-6-2-9-3-5m-72 14c0 9 1 11 2 11s2-2 2-8c1-8 1-10 6-10 4 0 4 2 5 10 0 6 1 8 2 8s2-5 1-15c0-5-7-7-12-5h-2l-2-1c-2 0-2 1-2 10m27-8l-4 5c-3 9 7 18 15 12 2-1 2-1 2 2 0 4-3 7-6 7l-5-2c-5-4-7-2-3 3 5 4 13 3 16-3 3-4 2-25 0-26l-2 1c0 2 0 2-2 1-3-2-8-2-11 0m69 1c-7 7-2 18 7 18 5 0 11-5 8-6l-4 1c-3 3-8 2-9 0-3-4-2-4 6-4 9 0 10-1 8-6-2-7-11-8-16-3m21 8c0 9 0 10 2 10s2-1 2-7c0-8 1-10 3-10s4-3 3-4l-3 1h-3l-2-1c-2 0-2 1-2 11m16-8c-9 8 2 23 12 16h2l2 2c2 0 2-1 2-10 0-10 0-11-2-11l-2 2h-2c-4-3-9-2-12 1m34 0c-3 3-3 4-3 8 1 6 3 9 9 10l6-1 2-1 2 2c2 0 2-2 2-11s0-10-2-10l-1 2c0 1-1 1-3-1-4-2-9-1-12 2m24 8l1 10c1-1 2-3 2-8 0-7 2-10 6-10s5 2 6 11c0 9 2 9 3-1 0-7 2-10 6-10s5 3 5 10 1 8 4 7 0-18-5-19c-2-1-6-1-8 1h-5c-3-2-8-2-10-1h-2l-2-1-1 11m-163-5c-6 7 4 16 10 10 3-3 3-8 0-11s-7-3-10 1m107 0c-3 3-3 7 0 10 4 3 7 3 10-1 4-5 1-12-5-12-2 0-4 1-5 3m35-1c-3 2-3 8 0 11 4 4 11 1 11-5 0-7-6-10-11-6" fill="#d3d3d3" fill-rule="evenodd"/></svg>