<svg xmlns="http://www.w3.org/2000/svg" width="233" height="300"><path d="M114 1a629 629 0 01-61 22L8 39c-8 3-8 2-7 14a15411 15411 0 0017 140 4478 4478 0 0188 50l10 6 13-7a7241 7241 0 0185-48 1389 1389 0 018-65 4122 4122 0 019-87l-18-7a1442 1442 0 01-97-35l-2 1m-5 42a9489 9489 0 00-65 146l13 1h14l7-18 7-17 31-1h31l5 13 7 18 2 5h27l-4-8a411 411 0 01-12-29 14104 14104 0 01-56-124l-7 14m4 45a1017 1017 0 01-18 43h40c2 0 2 0-3-11a2330 2330 0 01-16-38l-3 6M92 270c-5 4-6 13-2 19 3 4 11 4 15 0 3-3 3-5 1-5l-3 2c-1 3-8 4-11 1s-3-10 0-13c3-4 8-4 11 0l3 2c2-2 1-3-2-6s-9-3-12 0m19 10c0 10 0 12 2 12l1-6c0-6 1-8 5-8 2 0 3 1 3 7 0 5 0 7 2 7 1 0 2-11 0-14-1-3-7-4-9-2-1 1-1 0-1-3l-1-5c-2 0-2 2-2 12m-71 4l1 8c1 0 2-2 2-6 0-8 0-8 4-8h3v7c0 6 0 7 2 7s2-1 2-6c0-7-2-10-6-11l-5 1h-1l-1-1-1 9m19-7c-6 7 1 18 8 14 2-1 3 2 1 4h-7c-2-2-4-1-3 1 3 5 11 4 13-1l1-11v-9h-5c-5 0-6 0-8 2m72 0c-3 3-3 10 0 13 2 3 8 3 11 0 2-2 1-4-1-2-4 2-9 2-9-2l6-1c6 0 6 0 6-3 0-6-8-9-13-5m17 7l1 8c2 0 2-2 2-7 0-6 1-7 3-7 4 0 5 1 5 8 0 5 0 6 2 6s2-12-1-15c-1-2-2-2-7-2l-5 1v8m19-8c-2 1-1 16 1 16l1-6c0-6 1-8 5-8 2 0 3 1 3 7 0 5 0 7 2 7 1 0 2-13 0-15s-7-3-9-1h-3m19 1c-2 2-2 3-1 3l2-1c2-2 8-1 8 1 1 1 0 2-5 2-4 1-6 3-6 6 1 4 5 5 9 3h3l1 1c2 0 2-13 0-16-2-2-9-1-11 1" fill="#d3d3d3" fill-rule="evenodd"/></svg>