<svg xmlns="http://www.w3.org/2000/svg" width="172" height="205"><path d="M40 4l-8 8c-4 5-4 6-10 6-11 1-20 9-20 17 0 4 4 14 5 12 1-1 1-1 1 1l5 6 2 5c-3 1 3 5 9 7 2 1 3 0 4-1 1-2 0-2-4-4l-10-8 4 2c13 9 19 11 22 4a1388 1388 0 009 57 129136 129136 0 0155 31 541 541 0 0056-33c2-8 10-84 10-85L104 6l-18 6c-19 7-17 7-16 4 0-4-3-6-12-10-10-4-14-5-18-2M20 22c-8 3-11 13-7 22 1 4 5 6 3 2-1-5 1-14 7-22 2-3 1-4-3-2m64 45l-21 46 8 1h8l4-10 4-10h34l5 10 4 10h7l8-1-41-91-20 45m19-13a851 851 0 01-10 26h23l-6-14c-5-13-6-14-7-12M40 163l-4 11 2-2c1-3 2-3 7-3 4 0 5 0 6 3l2 2v-3c-6-14-7-16-9-16l-4 8m17 2l1 9 1-8v-7l6 7c3 5 7 8 7 8l1-9c0-12-2-13-2-2v7l-6-7c-3-5-7-8-7-8l-1 10m25-8c-9 4-4 17 6 17 5 0 6-1 6-6s-2-4-2 1c0 2-1 3-4 3-7 0-11-8-6-13 2-2 8-3 10-1l2 1c1-2-3-4-6-4l-6 2m18 6c0 8 2 11 7 11 6 0 8-2 8-11l-1-8-1 7c0 8-1 10-5 10-5 0-6-2-6-10l-1-7-1 8m21 2v9h8c7 0 8 0 9-2 1-3 2-3 6-3s5 0 6 3c1 2 3 3 3 1l-9-18-5 9-4 9-6-1h-6v-9l-1-8-1 10m36 0l1 9 1-3c0-4 6-4 9 0l3 3-1-3-2-3 2-3c4-5 0-10-8-10h-5v10M50 186c0 1 1 2 3 2s2 0 2 8 0 8 2 8c3 0 3 0 3-8 0-7 1-8 3-8s3-1 3-2c0-2-1-2-8-2s-8 0-8 2m18 5c0 10 2 13 9 13s9-4 9-14c0-5-1-6-3-6s-2 0-2 7c0 6-1 8-2 8-4 3-5 0-6-8 0-6-1-7-3-7s-2 0-2 7m22 3c0 9 0 10 2 10s2-1 2-6l1-5 4 5c7 9 8 8 8-4 0-9 0-10-2-10s-2 1-2 6v6l-4-4c-8-11-9-11-9 2m35-9c-7 2-6 9 2 11 3 1 4 4 1 4l-5-1h-3c-1 2 1 4 7 5 9 1 12-8 3-11l-4-3c-2-2 2-3 5-1h3v-3c-1-1-8-2-9-1m29 0l-5 10-4 9h3l3-2c1-1 2-2 5-2s4 0 5 2c0 1 1 2 3 2h3l-3-8-5-10c-1-2-4-3-5-1" fill="#d3d3d3" fill-rule="evenodd"/></svg>