<svg xmlns="http://www.w3.org/2000/svg" width="180" height="194"><path d="M85 2A3880 3880 0 012 32c-2 0-2 1-2 3a1922 1922 0 0114 114c0 2 1 4 5 5l14 8a240 240 0 0026 14 516 516 0 0032 17l8-4a587 587 0 0056-31l9-5c2 0 4-12 7-39l1-13a971 971 0 008-66c2-2 1-3-1-4a371 371 0 01-40-13L97 3c-7-3-7-3-12-1m4 25l-1 3-10 28c-8 23-29 68-32 68l-3-3-2-3 3-4c2-5 4-17 2-17l-2 3c-1 4-5 9-11 12l-3 4c6 12 18 30 19 30l5-9c10-21 15-28 18-29 12-3 24-3 34-1 5 1 4 1 13 16a606 606 0 0113 22l4-6 14-23c0-1-2-3-5-4-4-3-10-11-10-14l-1-2c-2 0 0 13 2 17 3 5 3 5 1 8l-3 3-6-8-2-3a438 438 0 01-37-88m0 35c0 2-6 19-10 26l-2 6h26l-4-7a98 98 0 01-9-25h-1" fill="#d3d3d3" fill-rule="evenodd"/></svg>