<svg version="1.1" id="Layer_1" xmlns="http://www.w3.org/2000/svg" xmlns:xlink="http://www.w3.org/1999/xlink" x="0px" y="0px" width="100px" height="100px" viewBox="-249 151 100 100" enable-background="new -249 151 100 100" xml:space="preserve">
<path fill="#55ACEE" d="M-160.5,177.1c-2.8,1.3-5.9,2.1-9.1,2.5c3.3-2,5.8-5.1,6.9-8.7c-3.1,1.8-6.4,3.1-10,3.8c-2.9-3.1-7-5-11.5-5  c-8.7,0-15.8,7.1-15.8,15.8c0,1.2,0.1,2.4,0.4,3.6c-13.1-0.7-24.8-6.9-32.6-16.5c-1.4,2.3-2.1,5-2.1,7.9c0,5.5,2.8,10.3,7,13.1  c-2.6-0.1-5-0.8-7.2-2c0,0.1,0,0.1,0,0.2c0,7.7,5.4,14,12.7,15.5c-1.3,0.4-2.7,0.6-4.2,0.6c-1,0-2-0.1-3-0.3c2,6.3,7.8,10.8,14.8,11  c-5.4,4.2-12.2,6.8-19.6,6.8c-1.3,0-2.5-0.1-3.8-0.2c7,4.5,15.3,7.1,24.2,7.1c29.1,0,44.9-24.1,44.9-44.9c0-0.7,0-1.4,0-2  C-165.3,183.1-162.6,180.3-160.5,177.1z"/>
</svg>
